<svg xmlns="http://www.w3.org/2000/svg" height="40" viewBox="0 96 960 960" width="40"><path d="M419.667 776.666 715.333 480l-71.666-73-224 224.001-108.334-108.334-71.999 73 180.333 180.999Zm60.119 228.664q-88.426 0-167.253-33.267-78.827-33.271-137.076-91.52-58.249-58.249-91.52-137.071-33.27-78.823-33.27-167.38 0-89.238 33.33-167.666 33.329-78.427 91.698-136.948 58.369-58.521 136.965-91.999Q391.257 146 479.557 146q89.329 0 168.036 33.427Q726.3 212.854 784.63 271.3q58.331 58.445 91.85 137.015Q910 486.885 910 576.389q0 88.795-33.479 167.164-33.478 78.368-91.999 136.745-58.521 58.376-136.954 91.706-78.433 33.326-167.782 33.326Z"/></svg>