<?xml version="1.0" encoding="UTF-8"?>
<svg viewBox="0 0 99.43 99.43" xmlns="http://www.w3.org/2000/svg">
<title>Follow @matthallSU on Twitter for updates</title>
<path d="M49.72,0A49.72,49.72,0,1,0,99.43,49.72,49.72,49.72,0,0,0,49.72,0Zm25,40.29c0,.51,0,1,0,1.55,0,15.84-12.06,34.1-34.1,34.1a34,34,0,0,1-18.37-5.38,24.55,24.55,0,0,0,2.86.16A24,24,0,0,0,40,65.59,12,12,0,0,1,28.8,57.27a12.12,12.12,0,0,0,5.41-.21,12,12,0,0,1-9.62-11.75.76.76,0,0,1,0-.15A11.84,11.84,0,0,0,30,46.66a12,12,0,0,1-3.71-16A34,34,0,0,0,51,43.18a11.72,11.72,0,0,1-.31-2.73,12,12,0,0,1,20.73-8.2,24.18,24.18,0,0,0,7.61-2.91A12,12,0,0,1,73.78,36a23.61,23.61,0,0,0,6.88-1.89A24.19,24.19,0,0,1,74.68,40.29Z" fill="#fff"/></svg>
