<?xml version="1.0" encoding="UTF-8"?>
<!DOCTYPE svg  PUBLIC '-//W3C//DTD SVG 1.1//EN'  'http://www.w3.org/Graphics/SVG/1.1/DTD/svg11.dtd'>
<svg clip-rule="evenodd" fill-rule="evenodd" stroke-linejoin="round" stroke-miterlimit="2" version="1.1" viewBox="0 0 3967 1138" xml:space="preserve" xmlns="http://www.w3.org/2000/svg"><g fill="#fff" fill-rule="nonzero"><path d="m1018.8 726.53c20.278 1.041 22.361 1.041 29.722 1.041 72.338 0 101.02-33.889 101.02-73.402-0-31.459-18.195-47.894-33.912-54.885-13.982-6.273-30.07-7.338-53.496-7.338h-77.245v246.78h33.912v-112.2zm-0-113.96h37.407c30.047 0 40.903 6.991 48.241 15.741 5.579 6.644 10.139 17.13 10.139 29.005-0 21.319-13.287 42.639-45.463 51.389-20.602 5.578-40.533 4.884-50.324 4.537v-100.67zm188.52 90.88c3.496-4.884 15.371-21.319 36.69-21.319 11.898-0 21.69 4.907 27.269 7.338v-28.658c-4.885-2.106-9.445-4.19-18.519-4.19-25.532 0-39.514 20.278-45.44 28.658v-24.468h-32.176v177.92h32.176v-135.28zm121.39-42.986h-31.805v178.29h31.805v-178.29zm-34.259-51.736c-0 11.18 8.75 18.518 18.171 18.518 5.949 0 18.889-3.495 18.889-19.56 0-9.097-6.991-18.194-18.171-18.194-11.204-0-18.889 8.402-18.889 19.236m116.37 72.361h36.713v-20.278h-36.713v-17.13c-0-15.37-0-23.425 3.842-29.699 3.496-5.949 10.834-11.203 22.014-11.203 8.403-0 14.352 2.453 19.236 4.56 1.389-2.107 4.19-5.255 5.602-7.338-3.842-4.213-13.287-15.394-34.954-15.394-14.699 0-25.185 5.232-31.458 9.792-15.741 11.875-16.088 28.31-16.088 44.398v22.014h-25.162v20.278h25.162v157.64h31.806v-157.64zm188.66-20.278-54.19 124.1-50.324-124.1h-35.324l69.213 161.13c-23.403 53.149-38.102 69.584-69.213 79.005v9.444c45.093 2.107 68.519-24.814 89.838-73.402l77.616-176.18h-27.616zm171.25 42.292c-1.065-8.033-3.495-24.815-21.69-37.408-12.916-9.074-30.046-12.222-44.027-12.222-40.209 0-64.676 23.079-64.676 52.778-0 34.259 30.763 44.051 48.588 49.653 19.236 5.926 28.31 8.727 35.3 12.222 4.908 2.454 17.825 9.444 17.825 26.204-0 17.824-15.718 29.722-39.838 29.722-17.824-0-34.954-6.296-46.505-16.435-8.032-6.991-12.222-14.329-15.37-19.561-2.454 1.042-6.644 2.084-9.445 3.149 1.759 8.379 4.908 26.551 23.426 40.532 13.982 10.139 31.458 13.982 48.935 13.982 19.236-0 37.408-3.843 51.736-15.371 12.246-9.792 19.584-23.773 19.584-40.555-0-37.755-36.019-48.241-53.843-53.473-2.454-0.694-17.477-5.254-18.518-5.601-18.172-5.95-30.07-12.94-30.07-27.616 0-15.718 15.046-27.269 38.102-27.269 33.218 0 45.44 20.278 51.389 30.07 2.454-0.695 6.643-2.107 9.097-2.801m151.6-42.292v23.079c-7.361-10.486-21.342-30.417-52.801-30.417-37.384 0-71.643 31.806-71.643 92.986-0 56.273 30.046 87.037 69.56 87.037 34.607 0 49.282-19.93 54.884-27.268v10.139c0 25.162 0 41.597-12.592 55.926-9.445 11.18-24.121 16.064-38.797 16.064-16.435 0-33.564-6.273-45.092-16.759-8.056-7.338-11.181-13.981-13.982-19.93l-10.139 3.495c10.487 49.977 52.431 55.579 71.297 55.579 30.069-0 50.347-11.204 62.222-23.079 18.889-19.213 18.889-43.681 18.889-70.255v-156.6h-31.806zm0 131.78c-8.055 6.643-22.384 18.518-42.662 18.518-34.259 0-48.588-33.194-48.588-67.106 0-40.209 18.542-67.825 47.199-67.825 8.727 0 17.824 2.801 25.857 8.056 10.139 6.644 14.676 14.329 18.194 20.278v88.079zm240.07-45.44c-0-54.537-32.176-93.681-84.259-93.681-47.524 0-87.732 30.764-87.732 99.259 0 16.436 2.107 51.042 28.657 74.121 19.584 16.435 41.598 19.213 55.926 19.213 38.82-0 59.445-19.213 68.172-30.394 11.898-15.393 19.236-38.449 19.236-68.518m-33.912 2.106c-0 56.968-24.815 77.593-52.084 77.593-17.824-0-36.365-10.139-45.092-33.565-2.801-6.644-6.991-21.667-6.991-44.745 0-37.408 13.634-75.487 52.431-75.487 35.995 0 51.736 35.996 51.736 76.204m101.64-157.32h-31.828v246.78h31.828v-246.78zm126.18 246.78h43.356l24.468-54.514h102.06l24.468 54.514h53.125l-113.24-246.78h-17.13l-117.11 246.78zm154.84-87.037h-72.338l35.648-80.047 36.69 80.047zm112.57 87.037h46.852v-18.519c5.926 7.338 21.667 26.574 52.06 26.574 34.954 0 79.352-27.268 79.352-99.282 0-55.579-28.31-95.07-76.18-95.07-33.912 0-48.241 18.519-55.232 27.616v-88.102h-46.852v246.78zm46.852-134.21c0-0.371 11.181-23.426 38.079-23.426 17.847-0 29.375 10.139 36.366 24.467 6.99 13.982 8.032 30.07 8.032 41.598-0 58.727-27.245 70.949-45.44 70.949-19.93-0-30.393-12.57-37.037-20.625v-92.963zm324.7 79.699c-12.245 15.717-25.185 32.153-57.685 32.153-55.232-0-61.181-49.306-62.94-62.57h137.73c-0.348-19.583-0.695-52.778-25.51-77.963-21.666-21.666-49.629-24.12-65.023-24.12-63.264-0-96.805 42.662-96.805 95.092-0 54.862 33.889 99.26 98.217 99.26 61.505-0 75.857-36.69 83.542-56.273l-11.528-5.579zm-119.56-57.685c4.537-17.824 11.528-45.44 45.093-45.44 34.953-0 38.796 29.352 40.902 45.44h-85.995zm212.94-66.76h-46.829v178.96h46.829v-138.77c8.055-5.232 18.518-12.223 35.671-12.223 12.917 0 22.014 4.19 30.741 8.38v-40.532c-4.19-0.718-8.727-1.065-13.264-1.065-31.829-0-46.157 18.541-53.148 27.616v-22.362zm115.81 0h-28.31v27.963h28.31v98.912c-0 15.741 1.736 31.459 14.676 44.051 13.634 13.635 32.176 14.676 40.555 14.676 23.056 0 35.649-8.032 46.135-14.328l-5.579-11.181c-5.602 1.736-10.509 3.495-17.847 3.495-3.496 0-17.477 0-25.857-15.74-3.495-5.949-5.602-13.287-5.602-28.311v-91.574h40.903v-27.963h-40.903v-48.588h-46.481v48.588zm271.11 70.95c0-16.436-0.347-40.186-17.824-58.033-10.139-10.486-29.722-20.625-60.139-20.625-53.125 0-67.106 30.764-74.792 47.894l11.875 5.949c6.991-9.445 19.584-26.574 49.283-26.574 13.287-0 33.217 4.56 41.597 23.426 3.843 8.75 4.56 18.171 4.907 27.268-13.981-4.19-25.162-7.685-42.291-7.685-41.597-0-75.509 23.055-75.509 64.305-0 32.176 23.078 57.338 59.421 57.338 33.217 0 50.694-17.476 58.379-25.532v20.278h45.093v-108.01zm-45.093 71.666c-9.097 5.926-20.277 12.917-36.712 12.917-23.403-0-32.153-16.412-32.153-31.806-0-22.708 18.171-33.541 38.796-33.541 11.898-0 20.972 3.125 30.069 6.643v45.787zm114.56 37.755h17.106l47.199-104.17 47.199 104.17h16.76l67.476-180.37h-37.407l-30.764 89.144-5.231 16.759c-3.843-9.421-4.19-11.18-7.686-19.583l-35.671-86.32h-15.37l-46.505 105.56c-2.43-8.727-3.125-10.833-5.579-18.866l-29.375-86.69h-48.588l66.436 180.37zm370.58-55.926c-12.222 15.717-25.162 32.153-57.685 32.153-55.208-0-61.157-49.306-62.916-62.57h137.73c-0.347-19.583-0.694-52.778-25.509-77.963-21.69-21.666-49.653-24.12-65.023-24.12-63.264-0-96.829 42.662-96.829 95.092-0 54.862 33.912 99.26 98.217 99.26 61.528-0 75.857-36.69 83.542-56.273l-11.528-5.579zm-119.54-57.685c4.537-17.824 11.528-45.44 45.07-45.44 34.977-0 38.819 29.352 40.903 45.44h-85.973z"/><path d="m944.68 416.79c2.083 12.94 5.232 32.871 22.361 49.63 23.426 23.426 57.685 24.12 70.278 24.12 10.486 0 51.366 0 77.94-27.615 12.592-13.264 21.666-32.848 21.666-54.167 0-19.236-7.685-36.366-19.56-47.546-16.088-16.088-41.597-22.014-58.727-25.857-26.574-5.255-45.439-9.097-52.801-27.268-1.736-4.561-2.083-9.098-2.083-11.899 0-25.509 24.815-38.101 52.778-38.101 21.319-0 38.449 6.99 49.282 17.476 6.297 6.297 9.098 12.246 12.246 19.931l14.328-3.843c-1.041-8.379-2.801-25.509-17.824-40.902-21.319-22.014-55.231-22.361-65.37-22.361-80.046-0-95.07 49.629-95.07 76.898 0 56.62 52.084 67.106 80.047 72.708 30.046 5.949 51.366 13.634 51.366 40.185-0 20.996-17.107 42.315-52.084 42.315-20.972-0-41.597-6.296-56.62-20.972-9.074-9.097-13.634-18.542-18.171-27.616l-13.982 4.884zm257.2 67.824h17.13l47.176-104.17 47.199 104.17h16.782l67.454-180.37h-37.408l-30.74 89.12-5.255 16.783c-3.843-9.445-4.19-11.181-7.685-19.584l-35.648-86.319h-15.394l-46.481 105.56c-2.454-8.75-3.148-10.834-5.602-18.866l-29.352-86.69h-48.588l66.412 180.37zm356.25-109.42c0-16.435-0.347-40.208-17.824-58.032-10.139-10.486-29.699-20.625-60.116-20.625-53.125-0-67.106 30.764-74.815 47.893l11.899 5.949c6.99-9.444 19.56-26.574 49.282-26.574 13.287 0 33.194 4.56 41.597 23.426 3.843 8.727 4.537 18.171 4.885 27.269-13.982-4.19-25.163-7.686-42.292-7.686-41.597 0-75.509 23.056-75.509 64.306-0 32.153 23.078 57.338 59.421 57.338 33.217-0 50.694-17.477 58.38-25.532v20.277h45.092v-108.01zm-45.092 71.667c-9.075 5.926-20.278 12.916-36.69 12.916-23.426 0-32.176-16.412-32.176-31.805-0-22.708 18.194-33.542 38.819-33.542 11.875 0 20.972 3.125 30.047 6.621v45.81zm245.88-84.607c0-15.023-1.042-32.847-14.329-46.828-9.444-9.792-24.467-16.436-43.009-16.436-33.889 0-49.282 18.172-58.356 28.658v-23.403h-46.505v178.96h46.505v-133.17c8.032-9.097 19.56-22.037 38.796-22.037 16.782-0 25.509 10.856 28.31 20.972 1.759 5.949 1.759 12.246 1.759 18.195v116.04h46.829v-120.95zm26.505 74.121c1.041 8.379 3.148 21.319 15.023 33.541 7.708 7.709 25.532 20.625 60.486 20.625 51.366 0 76.204-29.004 76.204-60.115-0-15.024-5.602-28.311-13.982-37.061-10.139-10.486-23.773-14.328-33.565-16.782-6.643-1.736-13.287-3.148-19.93-4.537-15.718-4.19-31.806-8.727-31.806-24.815 0-11.528 10.139-23.773 35.648-23.773 35.301-0 44.051 18.171 47.2 24.468l12.222-3.496c-1.389-6.991-3.496-17.477-13.982-28.31-11.18-11.528-29.352-19.583-53.125-19.583-52.083-0-75.139 31.458-75.139 60.139 0 32.5 26.899 42.638 33.889 45.092 8.056 3.148 16.088 4.884 24.121 6.644 22.731 4.884 34.259 9.421 39.49 20.972 1.065 3.148 1.76 5.926 1.76 8.727-0 1.065-0 17.477-19.584 23.773-5.926 2.106-11.875 2.454-17.477 2.454-19.56-0-36.342-6.644-46.134-16.436-4.884-4.884-6.991-9.791-9.074-14.328l-12.245 2.801zm341.11-7.709c-12.222 15.741-25.162 32.176-57.662 32.176-55.232 0-61.181-49.282-62.917-62.569h137.71c-0.348-19.584-0.695-52.801-25.51-77.963-21.666-21.667-49.653-24.121-65.023-24.121-63.264 0-96.829 42.662-96.829 95.093 0 54.884 33.912 99.259 98.218 99.259 61.528 0 75.856-36.69 83.565-56.273l-11.551-5.602zm-119.54-57.662c4.537-17.824 11.528-45.44 45.092-45.44 34.954 0 38.797 29.352 40.903 45.44h-85.995zm318.4 4.19c-0-16.435-0.348-40.208-17.824-58.032-10.139-10.486-29.723-20.625-60.116-20.625-53.148-0-67.13 30.764-74.815 47.893l11.898 5.949c6.991-9.444 19.56-26.574 49.283-26.574 13.263 0 33.194 4.56 41.597 23.426 3.842 8.727 4.537 18.171 4.884 27.269-13.981-4.19-25.162-7.686-42.292-7.686-41.597 0-75.509 23.056-75.509 64.306 0 32.153 23.079 57.338 59.421 57.338 33.218-0 50.695-17.477 58.38-25.532v20.277h45.093v-108.01zm-45.093 71.667c-9.074 5.926-20.278 12.916-36.713 12.916-23.403 0-32.153-16.412-32.153-31.805 0-22.708 18.172-33.542 38.797-33.542 11.898 0 20.995 3.125 30.069 6.621v45.81zm394.98-210.79h-33.542v192.24c-15.741 17.847-43.703 38.449-75.856 38.449-23.426 0-42.292-10.833-50.695-24.097-6.273-9.792-8.727-23.426-8.727-50v-156.6h-33.564v171.62c-0 25.88 4.189 43.704 18.889 58.727 13.263 13.981 35.648 23.773 65 23.773 32.87 0 60.138-10.486 84.953-43.68v36.689h33.542v-247.13zm195.07 121.99c0-16.435-0.347-33.194-15.023-46.828-3.518-2.801-15.046-13.287-40.903-13.287-37.06-0-53.842 22.708-60.833 32.152v-24.814h-31.458v177.92h31.458v-132.48c12.222-20.625 30.764-29.722 47.894-29.722 10.486 0 29.699 4.213 34.953 23.426 2.454 9.445 2.454 18.519 2.454 37.755v101.02h31.458v-125.14zm75.278-53.125h-31.805v178.26h31.805v-178.26zm-34.259-51.736c-0 11.181 8.75 18.519 18.194 18.519 5.926-0 18.866-3.496 18.866-19.56 0-9.098-6.991-18.195-18.171-18.195-11.181 0-18.889 8.403-18.889 19.236m199.28 52.084-50.671 118.84c-2.801 6.297-3.171 8.403-3.843 11.898-1.412-5.949-3.148-10.486-3.518-11.551l-48.565-119.19h-34.63l77.963 180.02h10.834l78.657-180.02h-26.227zm203.82 89.143c0.347-12.592 1.389-50.694-26.227-76.204-13.982-12.592-32.847-20.277-55.579-20.277-47.87-0-88.773 35.301-88.773 97.176 0 63.611 41.944 95.416 89.144 95.416 61.157 0 74.791-44.375 78.287-56.967-2.431-0.695-6.274-2.454-8.727-3.496-6.297 9.792-24.121 36.343-61.875 36.343-5.255-0-30.417-0-48.241-23.056-13.634-18.194-14.676-38.819-15.37-48.935h137.36zm-137.01-19.236c4.884-40.903 33.194-55.231 54.514-55.231 17.477-0 48.935 10.486 51.389 55.231h-105.9zm201.5-27.268c3.496-4.885 15.394-21.32 36.713-21.32 11.875 0 21.667 4.884 27.269 7.338v-28.657c-4.907-2.107-9.445-4.19-18.542-4.19-25.509-0-39.49 20.278-45.44 28.657v-24.467h-32.152v177.92h32.152v-135.28zm215.09-0.348c-1.065-8.032-3.495-24.814-21.69-37.407-12.916-9.074-30.069-12.222-44.051-12.222-40.185-0-64.652 23.055-64.652 52.777-0 34.26 30.763 44.051 48.587 49.63 19.237 5.949 28.311 8.75 35.301 12.245 4.908 2.454 17.824 9.445 17.824 26.204 0 17.847-15.717 29.722-39.837 29.722-17.848 0-34.954-6.296-46.505-16.435-8.033-6.991-12.222-14.328-15.37-19.56-2.454 1.042-6.644 2.083-9.445 3.148 1.759 8.38 4.907 26.551 23.426 40.533 13.981 10.138 31.458 13.981 48.935 13.981 19.236 0 37.408-3.843 51.736-15.37 12.246-9.792 19.584-23.773 19.584-40.556-0-37.754-36.019-48.241-53.843-53.472-2.454-0.718-17.477-5.255-18.518-5.602-18.195-5.949-30.07-12.94-30.07-27.616 0-15.74 15.046-27.268 38.102-27.268 33.218-0 45.44 20.278 51.389 30.069 2.454-0.694 6.643-2.106 9.097-2.801m68.032-42.639h-31.805v178.26h31.805v-178.26zm-34.236-51.736c0 11.181 8.727 18.519 18.172 18.519 5.949-0 18.865-3.496 18.865-19.56 0-9.098-6.99-18.195-18.171-18.195-11.18 0-18.866 8.403-18.866 19.236m115.16 72.361h37.408v-20.277h-37.408v-47.199h-31.805v47.199h-24.468v20.277h24.468v110.81c-0 21.319 1.412 35.648 15.741 45.787 5.231 3.495 15.37 8.379 29.004 8.379 20.625 0 31.806-9.791 38.449-15.37-1.389-2.454-3.495-5.949-4.884-8.403-5.949 2.801-12.245 5.949-21.319 5.949-25.186 0-25.186-22.361-25.186-45.092v-102.06zm193.31-20.277-54.19 124.1-50.324-124.1h-35.324l69.213 161.13c-23.426 53.148-38.102 69.56-69.213 79.005v9.444c45.092 2.083 68.518-24.815 89.838-73.403l77.615-176.18h-27.615z"/><path d="m686.06 775.41c-13.125-26.527-38.936-66.597-45.695-74.884l-1.366 3.079c-0.115 0.532-11.944 51.944-15.787 72.685 3.102-1.551 8.38-4.583 12.871-7.153l4.028-2.315 0.115 3.056c1.436 35.185-4.861 65.741-18.703 90.81l-0.255 0.463c-2.546 0.44-5.255 0.787-7.94 1.065l-44.977-33.542v-167.52c0-2.153-0.81-4.167-2.338-5.694-1.111-1.111-2.639-2.431-4.467-3.635l94.884-73.31c4.352-3.356 4.931-9.699 1.296-13.819-1.365-1.574-2.708-3.125-4.097-4.699-3.31-3.75-8.958-4.329-12.94-1.297l-92.569 70.486c-9.213-2.939-28.496-8.078-49.699-8.078-25.926-0-48.889 6.458-68.565 19.236v-28.264c9.329-0.509 22.685-2.338 36.227-8.102 2.176-0.926 3.611-3.194 3.68-5.741l0.533-22.5c0.069-2.43-1.158-4.676-3.148-5.787-5.232-2.916-17.037-7.963-37.292-9.537v-4.352c-0-4.074-3.31-7.384-7.384-7.384h-10.394c-4.097 0-7.407 3.31-7.407 7.384v4.352c-20.232 1.574-32.037 6.621-37.269 9.537-1.99 1.111-3.217 3.357-3.171 5.787l0.556 22.5c0.046 2.547 1.481 4.815 3.657 5.741 13.542 5.764 26.921 7.593 36.227 8.102v28.264c-19.653-12.778-42.639-19.236-68.565-19.236-18.333-0-35.232 3.842-45.417 6.782l-40.926-30.301c1.899-4.722 2.94-9.884 2.94-15.301 0-22.939-18.611-41.527-41.551-41.527s-41.528 18.588-41.528 41.527c0 22.94 18.588 41.528 41.528 41.528 8.357 0 16.111-2.454 22.639-6.713l43.75 32.408c-3.958 1.481-7.083 4.004-9.028 5.949-1.504 1.527-2.338 3.541-2.338 5.694v164.47l-31.296 23.171c-4.907 0.139-9.907 1.296-13.148 3.518-24.907-35.925-44.838-82.314-43.264-126.67-20.972 46.898-3.055 102.68 21.759 145.25l-9.004 6.065c-1.181 0.787 0.879 5.949 4.629 11.505l3.843 5.717c3.727 5.533 7.708 9.399 8.912 8.612l10.301-6.945c33.287 35.718 80.741 68.38 131.06 62.269-42.94-12.408-79.838-42.477-107.11-77.269 2.5-1.991 3.519-6.736 5.093-10.417l43.009-31.805c12.523-4.051 27.732-7.894 40.509-7.894 20.255 0 39.398 3.01 55.278 8.056-0.046 0.069 0.185 0.139 0.625 0.185l17.338 5.579c-0.023 0.324-0.046 0.648-0.046 0.949v79.537c-0 5.417 4.398 9.792 9.815 9.792h5.578c5.417-0 9.792-4.375 9.792-9.792v-79.537c-0-0.301-0-0.625-0.046-0.949l17.361-5.579c0.44-0.046 0.648-0.116 0.625-0.185 15.879-5.046 35.023-8.056 55.278-8.056 10.463 0 22.569 2.57 33.495 5.741l59.491 44.306c0.833 3.495 1.597 7.222 2.129 10.856-24.93 24.56-54.815 35.81-75.625 40.903l-2.523 0.625 0.255-2.616c0.347-3.565 0.787-7.199 1.18-10.463 0.348-2.916 0.741-6.065 0.926-8.24-17.176 11.574-58.495 41.62-58.727 41.782l-2.407 2.315c10.81 2.245 55.231 7.384 83.519 7.754-3.079-2.5-7.408-6.018-11.112-8.958l-2.824-2.245 3.473-0.996c21.111-5.949 50.648-17.754 76.365-40.764 13.079-2.847 31.412-10.787 31.412-10.787s0-14.606-1.064-27.176c16.851-28.981 24.513-64.213 22.754-104.81l-0.139-3.125 2.801 1.365c5.093 2.5 14.121 6.667 19.607 9.213m-475.23-170.81c-12.685 0-22.963-10.278-22.963-22.963s10.278-22.963 22.963-22.963 22.963 10.278 22.963 22.963-10.278 22.963-22.963 22.963m334.38 207.34c-11.319-4.537-24.629-6.852-39.629-6.852-34.306 0-68.565 11.76-82.94 17.408-2.408 1.134-7.199 2.916-5.371 2.222 0-0-1.226-0.417-5.208-2.176-14.282-5.625-48.657-17.454-83.102-17.454-15 0-28.31 2.315-39.629 6.852v-174.82c6.62-2.199 24.629-7.407 46.782-7.407 28.912-0 56.319 9.93 76.713 26.875l4.444 5.092 4.445-5.092c20.416-16.945 47.824-26.875 76.713-26.875 22.153-0 40.185 5.208 46.782 7.407v174.82z"/><path d="m430.83 671.47c-0.255 0.81-0.162 1.667 0.255 2.407l0.277 0.486c0.533 0.973 1.551 1.598 2.685 1.598 0.44-0 0.903-0.093 1.297-0.301 7.916-3.75 29.166-12.5 55.231-12.5 8.449-0 16.713 0.926 24.63 2.777l0.509 0.07h0.162c1.389-0 2.593-0.903 2.963-2.269l0.139-0.555c0.185-0.81 0.069-1.644-0.37-2.384-0.417-0.695-1.111-1.181-1.922-1.389-8.518-1.991-17.407-3.01-26.435-3.01-27.569 0-49.629 9.26-57.824 13.241-0.764 0.347-1.342 1.042-1.597 1.829"/><path d="m431.36 694.09c0.533 0.972 1.551 1.597 2.685 1.597 0.44-0 0.88-0.116 1.297-0.301 7.87-3.773 28.981-12.5 55.231-12.5 8.449-0 16.736 0.926 24.653 2.778l0.509 0.069h0.162c1.389 0 2.593-0.926 2.986-2.292l0.116-0.532c0.209-0.833 0.07-1.667-0.347-2.384-0.44-0.695-1.111-1.204-1.921-1.389-8.542-1.991-17.431-3.009-26.482-3.009-27.523-0-49.606 9.236-57.824 13.217-0.787 0.417-1.366 1.088-1.597 1.875-0.232 0.81-0.162 1.644 0.255 2.384l0.277 0.487z"/><path d="m516.73 697.6c-8.518-1.991-17.431-3.009-26.458-3.009-27.547-0-49.607 9.236-57.848 13.241-0.787 0.393-1.342 1.064-1.597 1.851-0.254 0.811-0.162 1.667 0.255 2.408l0.278 0.509c0.532 0.972 1.574 1.574 2.685 1.574 0.463 0 0.903-0.092 1.319-0.301 7.917-3.75 29.167-12.5 55.232-12.5 8.449 0 16.736 0.926 24.629 2.778l0.51 0.093h0.185c1.366-0 2.592-0.926 2.94-2.292l0.139-0.556c0.208-0.787 0.092-1.62-0.325-2.338-0.439-0.717-1.134-1.25-1.944-1.458"/><path d="m431.33 732.9c0.532 0.973 1.55 1.574 2.685 1.574 0.44 0 0.879-0.092 1.296-0.3 7.894-3.75 29.097-12.5 55.255-12.5 8.449-0 16.736 0.925 24.652 2.777l0.51 0.07h0.185c1.366-0 2.592-0.903 2.94-2.269l0.139-0.532c0.208-0.833 0.092-1.667-0.348-2.384-0.416-0.718-1.111-1.204-1.921-1.412-8.542-1.991-17.454-3.01-26.481-3.01-27.662 0-49.653 9.236-57.848 13.241-0.787 0.394-1.342 1.065-1.597 1.898-0.231 0.787-0.162 1.644 0.232 2.361l0.301 0.486z"/><path d="m516.7 736.73c-8.519-1.991-17.431-3.009-26.459-3.009-27.569-0-49.629 9.236-57.847 13.217-0.787 0.37-1.343 1.042-1.597 1.829-0.255 0.81-0.162 1.69 0.254 2.407l0.278 0.509c0.556 0.996 1.574 1.598 2.685 1.598 0.44-0 0.88-0.116 1.32-0.301 7.87-3.773 29.051-12.5 55.231-12.5 8.449-0 16.736 0.926 24.676 2.778l0.486 0.069h0.186c1.365 0 2.592-0.926 2.963-2.292l0.115-0.532c0.232-0.81 0.093-1.644-0.347-2.361-0.417-0.718-1.111-1.227-1.944-1.412"/><path d="m516.73 756.02c-8.542-1.991-17.431-3.009-26.458-3.009-27.547-0-49.607 9.259-57.848 13.24-0.787 0.394-1.342 1.065-1.597 1.875-0.231 0.787-0.162 1.621 0.255 2.385l0.278 0.462c0.532 0.996 1.574 1.598 2.685 1.598 0.463-0 0.903-0.093 1.319-0.301 7.917-3.75 29.167-12.5 55.255-12.5 8.426-0 16.713 0.926 24.606 2.778l0.51 0.069h0.185c1.366-0 2.592-0.903 2.94-2.269l0.139-0.555c0.208-0.81 0.092-1.644-0.348-2.361-0.439-0.718-1.111-1.204-1.921-1.412"/><path d="m516.76 775.39c-8.542-1.99-17.431-3.009-26.482-3.009-27.546 0-49.606 9.236-57.824 13.218-0.787 0.393-1.342 1.065-1.597 1.875s-0.162 1.666 0.509 2.87c0.533 0.972 1.551 1.597 2.662 1.597 0.463 0 0.903-0.115 1.32-0.301 7.916-3.773 29.166-12.5 55.254-12.5 8.426 0 16.713 0.926 24.607 2.778l0.532 0.07h0.162c1.389-0 2.593-0.926 2.963-2.246l0.116-0.555c0.231-0.834 0.093-1.69-0.347-2.385-0.417-0.717-1.088-1.226-1.875-1.412"/><path d="m385.72 728.16c-8.194-3.981-30.208-13.217-57.847-13.217-9.028-0-17.963 0.995-26.482 3.009-0.81 0.185-1.504 0.671-1.921 1.366-0.44 0.717-0.555 1.574-0.347 2.384l0.116 0.556c0.37 1.342 1.597 2.291 2.963 2.291l0.509-0.046 0.185-0.046c7.894-1.852 16.181-2.778 24.653-2.778 26.157-0 47.361 8.75 55.254 12.5 0.417 0.208 0.857 0.301 1.297 0.301 1.134-0 2.129-0.602 2.685-1.597l0.278-0.463c0.416-0.741 0.509-1.574 0.254-2.385-0.231-0.81-0.833-1.481-1.597-1.875"/><path d="m385.7 746.95c-8.218-3.982-30.278-13.218-57.824-13.218-9.028 0-17.94 0.995-26.459 3.009-0.833 0.162-1.527 0.672-1.967 1.412-0.417 0.718-0.533 1.551-0.347 2.338l0.139 0.556c0.37 1.343 1.574 2.292 2.963 2.292l0.509-0.047 0.162-0.046c7.916-1.852 16.204-2.778 24.653-2.778 26.18 0 47.361 8.75 55.254 12.5 0.417 0.209 0.857 0.301 1.297 0.301 1.111 0 2.152-0.602 2.662-1.574l0.3-0.532c0.417-0.718 0.51-1.574 0.255-2.385-0.278-0.81-0.833-1.481-1.597-1.828"/><path d="m385.66 766.25c-8.218-3.982-30.278-13.218-57.825-13.218-9.027 0-17.916 0.995-26.458 3.009-0.81 0.185-1.505 0.672-1.921 1.389-0.417 0.718-0.556 1.574-0.347 2.361l0.138 0.556c0.371 1.342 1.575 2.292 2.94 2.292l0.533-0.047 0.162-0.046c7.893-1.829 16.18-2.778 24.629-2.778 26.065 0 47.315 8.75 55.209 12.5 0.416 0.208 0.856 0.301 1.342 0.301 1.111 0 2.13-0.602 2.662-1.574l0.301-0.486c0.394-0.741 0.486-1.574 0.255-2.361-0.255-0.81-0.833-1.482-1.62-1.898"/><path d="m385.66 785.61c-8.217-3.981-30.278-13.217-57.824-13.217-9.051-0-17.94 0.995-26.481 3.009-0.787 0.185-1.459 0.671-1.898 1.389-0.417 0.741-0.556 1.597-0.348 2.384l0.139 0.556c0.371 1.319 1.574 2.268 2.963 2.268l0.509-0.046 0.162-0.046c7.894-1.829 16.181-2.778 24.63-2.778 26.088-0 47.338 8.75 55.255 12.5 0.393 0.208 0.856 0.301 1.296 0.301 1.134-0 2.153-0.602 2.685-1.574l0.278-0.486c0.394-0.718 0.486-1.574 0.231-2.385-0.254-0.81-0.833-1.481-1.597-1.875"/><path d="m308.97 702.94c6.019-1.042 12.269-1.551 18.542-1.551 26.088-0 47.338 8.75 55.254 12.5 0.417 0.185 0.857 0.301 1.297 0.301 1.134-0 2.152-0.625 2.685-1.597l0.278-0.51c0.416-0.74 0.509-1.574 0.254-2.361-0.231-0.833-0.81-1.504-1.597-1.898-7.986-3.866-29.213-12.801-55.88-13.218l0.024-11.713c25.185 0.51 45.347 8.866 52.916 12.477 0.417 0.209 0.857 0.301 1.32 0.301 1.134 0 2.152-0.602 2.685-1.574l0.278-0.486c0.416-0.741 0.509-1.597 0.254-2.384-0.254-0.81-0.81-1.482-1.597-1.875-4.352-2.107-27.13-12.454-55.833-13.172l0.023-12.986c25.046 0.51 45.254 8.843 52.87 12.454 0.417 0.208 0.857 0.324 1.32 0.324 1.134 0 2.152-0.625 2.685-1.597l0.278-0.509c0.416-0.741 0.509-1.574 0.254-2.385-0.254-0.833-0.833-1.481-1.597-1.851-8.194-3.982-30.278-13.218-57.824-13.218-9.051-0-17.94 1.018-26.435 3.032l-2.408 1.204 0.07 44.329 9.884-2.037z"/><path d="m492.25 288.76c-0.208 0.023-0.648-0.024-0.857-0 0.024 0.023 0.857-0 0.857-0-13.125 2.754-32.361 27.963-35.787 32.569-0.949 7.407 0.301 10.694 4.097 16.088 3.982 5.602 1.898 11.204-1.944 17.685-2.801 4.884-8.357 18.241-10.139 24.722-3.218 3.519-7.778 6.644-11.806 7.848-0.81-0.463-1.157-2.917-1.157-2.917-6.32-9.306-17.801-8.195-17.801-8.195-12.431 2.107-12.894 6.019-12.894 6.019 2.662-0.278 10.741 2.917 10.741 2.917 0.023 1.898 3.287 3.657 3.287 3.657-7.546-1.389-13.912 2.986-13.912 2.986-11.505 7.94-7.454 16.644-7.454 16.644 0.023-6.852 10.023-8.449 10.023-8.449 4.352 4.004 21.297-2.917 21.297-2.917l-14.908 12.222c-5.625 7.5-2.291 14.977-2.291 14.977 0.231-5.509 7.801-7.407 7.801-7.407 5.069-0.533 6.828-3.102 6.828-3.102 9.19-1.968 9.908-11.412 9.908-11.412 13.935-5.834 28.032-2.732 28.032-2.732 8.634 5 14.676 8.889 14.676 8.889l1.644-2.523c6.412-1.389 9.537 6.435 9.537 6.435 2.176-10.324-5.949-13.773-5.949-13.773-3.311-3.958-9.514-3.704-9.514-3.704l-10.417-2.939c-0.093-0.116-3.148-1.112-3.218-1.274-0.926-2.569-2.314-5.578-1.851-8.379 0.717-2.871 1.597-5.162 2.638-7.338 5.44-7.292 13.658-16.158 16.412-21.945 2.917-6.064 4.908-15.856 12.755-20.023 3.171-1.62 7.292-3.148 10.833-4.791l0.024 0.023s0.138-0.07 0.347-0.186c1.875-0.879 3.588-1.805 4.838-2.777 6.389-3.426 10.486-6.32 10.486-6.32-5.278-4.884-14.815-14.236-25.162-30.578"/><path d="m460.66 277.87c9.607 2.384 14.954 10.601 15.903 12.199 3.889-3.195 7.87-5.695 11.505-6.459-0 0-10.255-17.222-26.713-15.902-0.278-0-0.556 0.023-0.834 0.046h-0.092c-8.403 0.579-23.496 8.495-58.033 31.065-53.287 34.838-81.551 15.787-81.551 15.787-10.023 26.944-26.203 33.588-26.203 33.588s4.791 4.56 13.796 8.889c0.278-0.232 0.486-0.44 0.764-0.718 2.917-2.824 6.62-6.852 9.954-11.25 1.689-2.153 3.263-4.444 4.676-6.62 1.388-2.199 2.638-4.283 3.587-6.158 1.019-1.828 1.783-3.426 2.269-4.537 0.509-1.111 0.81-1.759 0.81-1.759s-0.162 0.671-0.416 1.898c-0.232 1.204-0.602 2.94-1.204 4.977-0.533 2.083-1.296 4.444-2.222 6.968-0.903 2.546-1.991 5.208-3.218 7.824-2.13 4.676-4.653 9.166-6.875 12.708 5.37 1.829 11.69 3.333 18.889 3.958 0.231-0.324 0.417-0.578 0.648-0.903 2.315-3.333 5.185-8.009 7.639-12.962 1.227-2.454 2.361-4.977 3.31-7.385 0.949-2.407 1.783-4.722 2.384-6.736 0.625-1.991 1.065-3.68 1.32-4.884 0.301-1.204 0.463-1.875 0.463-1.875s-0 0.694-0.023 1.921c-0 1.25-0.047 3.009-0.232 5.139-0.139 2.13-0.44 4.607-0.856 7.269-0.417 2.638-0.973 5.486-1.667 8.263-1.065 4.445-2.454 8.774-3.819 12.431 7.314-0.162 15.37-1.25 24.097-3.704 0.139-0.416 0.278-0.787 0.44-1.25 1.296-3.842 2.708-9.143 3.657-14.56 0.509-2.708 0.856-5.44 1.088-8.032 0.255-2.593 0.393-5.023 0.37-7.13 0.047-2.083 0-3.842-0.092-5.069-0.047-1.227-0.093-1.945-0.093-1.945s0.185 0.695 0.533 1.875c0.347 1.181 0.787 2.894 1.203 5 0.486 2.06 0.903 4.537 1.25 7.199s0.625 5.533 0.741 8.403c0.208 4.421 0.139 8.843-0.116 12.616 5.764-2.107 11.783-4.792 18.079-8.171 2.477-1.32 4.861-2.639 7.245-3.959-0.023-3.565-0.254-7.778-0.764-11.991-0.324-2.731-0.763-5.463-1.296-8.009-0.532-2.546-1.111-4.93-1.713-6.921-0.579-2.014-1.157-3.681-1.574-4.815-0.417-1.18-0.648-1.829-0.648-1.829s0.37 0.579 1.042 1.621c0.671 1.041 1.597 2.546 2.615 4.421 1.065 1.852 2.176 4.097 3.287 6.551 1.112 2.431 2.199 5.093 3.149 7.824 1.134 3.125 2.06 6.273 2.847 9.259 7.569-4.328 14.421-8.472 20.486-12.407-0.486-3.75-1.389-8.588-2.708-13.38-0.695-2.523-1.482-5-2.338-7.315-0.857-2.291-1.713-4.444-2.57-6.226-0.81-1.806-1.574-3.287-2.129-4.306-0.556-1.018-0.857-1.62-0.857-1.62s0.44 0.509 1.204 1.365c0.787 0.88 1.875 2.153 3.125 3.75 1.25 1.574 2.639 3.496 4.051 5.602 1.412 2.13 2.824 4.445 4.143 6.852 1.968 3.565 3.727 7.292 5.093 10.556 3.842-2.686 7.268-5.255 10.231-7.709l3.195-2.43s0.555-3.843-0.88-7.153c-0.787-1.898-1.643-3.843-2.593-5.764-1.157-2.338-2.407-4.63-3.68-6.736-1.25-2.106-2.5-4.051-3.681-5.648-1.134-1.621-2.152-2.94-2.893-3.82-0.741-0.926-1.158-1.435-1.158-1.435s0.533 0.417 1.459 1.134c0.926 0.695 2.245 1.737 3.75 3.079 1.551 1.296 3.241 2.94 5.046 4.746 1.782 1.828 3.611 3.842 5.347 5.949 0.278 0.324 0.51 0.648 0.787 0.995 0-0 4.653 5.787 4.607 11.435-0 0 6.481-9.028 14.467-16.875-1.666-11.342-12.083-17.129-10.81-16.805"/><path d="m227.57 177.59c17.963 2.893 43.495-8.31 53.726-19.954-1.597-3.148-6.597-4.398-9.467-3.958-13.634 10.162-42.639 23.148-61.25 9.004-0 0-17.546-12.87-5.764-33.726-0-0 3.31 10.625 9.444 11.25 0-0 1.366-17.547 11.783-20.857-0 0-14.491-5.532-26.042 6.111-14.213 14.283-3.842 47.06 27.57 52.13"/><path d="m335.83 284.82c16.482-2.685 32.732 4.931 32.732 4.931 5.162-18.125-2.153-23.519-2.153-23.519-15.278 15.371-30.579 18.588-30.579 18.588"/><path d="m395.23 268.07s3.843-16.389-8.843-23.912c0 0-6.736 11.482-13.541 17.222-0 0 4.907 6.806 3.055 13.056 0-0 10.695-9.699 19.329-6.366"/><path d="m439.27 228.11s5.486-20.833 24.931-20.833c-0-0-10.764-17.824-36.991-18.334-26.227-0.509-28.148 20.695-28.148 20.695v0.625c0.023-0.278 15.116-8.681 30.903 4.537-0-0 8.217 5.741 9.305 13.31"/><path d="m281.86 247.92c-1.574 1.365-3.264 3.101-5.046 4.976-1.76 1.875-3.565 3.936-5.255 6.088-3.426 4.26-6.412 8.797-8.426 12.292-0.463 0.741-0.833 1.412-1.18 2.06-0.047 0.185-0.116 0.394-0.186 0.579-1.99 6.62-3.472 13.241-4.12 19.444 1.435-1.713 2.94-3.449 4.537-5.115 1.968-2.061 4.005-4.028 5.972-5.787 1.991-1.76 3.866-3.357 5.579-4.607 1.643-1.273 3.079-2.268 4.097-2.94 1.019-0.671 1.597-1.065 1.597-1.065s-0.463 0.51-1.296 1.389c-0.856 0.88-2.014 2.153-3.333 3.75-1.343 1.574-2.801 3.496-4.283 5.579-1.481 2.083-2.986 4.375-4.351 6.713-2.778 4.676-5.093 9.537-6.621 13.241-0.602 1.435-1.042 2.639-1.389 3.611 0.949 4.352 2.732 8.171 5.579 11.18-0.069-0.208 0.949-2.06 2.569-4.814 3.449-6.135 7.269-11.922 11.297-17.732h-0.023c6.203-9.259 14.56-19.282 17.314-20.671 0-0-5.995-18.866-0.231-38.056 2.546-12.268 13.657-32.129 14.838-45.578-3.681 4.56-6.505 7.777-14.838 8.888l-1.574 4.468v-0.023l-6.32 12.153c3.195-1.366 6.366-2.477 8.866-3.148 1.482-0.44 2.708-0.695 3.588-0.88 0.857-0.185 1.366-0.301 1.366-0.301s-0.44 0.255-1.204 0.694c-0.787 0.44-1.852 1.065-3.102 1.899-2.523 1.643-5.671 4.051-8.565 6.689-2.893 2.662-5.509 5.51-7.314 7.755-0.278 0.347-0.51 0.648-0.764 0.949-0.926 1.806-1.945 3.704-3.056 5.926-1.713 3.472-3.565 7.338-5.416 11.528-0.88 1.921-1.713 3.912-2.57 5.949 2.06-1.644 4.144-3.171 6.181-4.537 2.199-1.482 4.305-2.801 6.157-3.82 1.852-1.041 3.403-1.851 4.514-2.361 1.111-0.532 1.736-0.856 1.736-0.856s-0.556 0.44-1.481 1.204c-0.973 0.763-2.315 1.875-3.843 3.287"/><path d="m511.67 172.9c-0.231-10.417 2.246-22.361 10.579-28.033 18.356-12.5 68.194-9.93 68.194-9.93-10.393-4.144-112.73-20.857-165.58 29.166-0 0 48.379-25.301 83.31 5.371 1.296 0.81 2.407 2.639 3.495 3.426"/><path d="m501.3 172.9s-12.755-7.963-27.222-10.579c-18.148-3.333-50.602 2.569-63.403 23.472 32.616-9.166 49.028 4.167 58.495 13.75 2.315-23.403 27.223-25.578 32.13-26.643"/><path d="m400.76 250.97c8.519-19.537 32.454-18.518 32.454-18.518 0.07-3.634-6.713-14.769-21.504-18.171-16.297-3.773-23.542 22.199-23.542 22.199 11.319 1.921 12.592 14.49 12.592 14.49"/><path d="m298.66 281.18c-3.357 0.973-6.112 5.51-6.112 5.51-9.236 12.245-15.185 21.782-24.097 37.361-11.157 17.986-21.967 43.981-36.227 57.616-1.25 1.18-1.782 1.921-3.796 2.638-2.014 0.718-4.444-2.87-4.444-2.87-6.32-9.329-17.801-8.241-17.801-8.241-12.431 2.13-12.894 6.042-12.894 6.042 2.662-0.301 10.741 2.894 10.741 2.894 0.023 1.921 3.287 3.68 3.287 3.68-7.546-1.389-13.912 2.963-13.912 2.963-11.505 7.94-7.454 16.644-7.454 16.644 0.023-6.829 10.023-8.426 10.023-8.426 4.352 4.004 21.297-2.917 21.297-2.917l-14.908 12.222c-5.625 7.477-2.291 14.977-2.291 14.977 0.231-5.509 7.801-7.407 7.801-7.407 5.069-0.533 6.828-3.102 6.828-3.102 9.19-1.968 9.908-11.435 9.908-11.435 13.935-5.811 28.032-2.709 28.032-2.709 8.657 4.977 14.676 8.889 14.676 8.889l1.644-2.546c6.412-1.366 9.537 6.435 9.537 6.435 2.199-10.301-5.95-13.75-5.95-13.75-3.31-3.958-9.513-3.704-9.513-3.704l-9.491-2.685c-0.764-1.18-1.458-2.477-2.014-4.051-1.157-8.449 4.954-16.389 9.028-22.754 12.523-13.635 31.944-19.098 41.018-29.005 8.056-9.051 16.181-23.264 14.838-41.481-0.555-7.894-14.537-11.575-17.754-10.788"/><path d="m196.93 227.7c5.81 13.959 2.732 28.056 2.732 28.056-5 8.634-8.912 14.653-8.912 14.653l2.546 1.643c1.366 6.435-6.435 9.537-6.435 9.537 10.324 2.199 13.773-5.926 13.773-5.926 3.935-3.333 3.704-9.514 3.704-9.514l2.662-9.513c1.18-0.741 2.476-1.459 4.074-2.014 5.115-2.686 9.421 0.393 12.662 3.264 1.203 1.111 2.384 2.245 3.541 3.495 6.968 6.319 9.908 15.972 14.954 23.542l-0.023 0.046 7.315 11.69c0.393-7.13 2.037-14.954 4.398-22.732 1.25-4.166 2.685-8.31 4.236-12.361h-6.065c-0.301-0.046-0.625-0.046-0.972 0-8.472-2.176-15.093-10-23.056-16.69-2.453-2.291-8.402-6.69-13.217-10.162-1.412-1.018-2.153-1.18-2.871-3.194-0.717-2.014 2.871-4.422 2.871-4.422 9.305-6.342 8.217-17.824 8.217-17.824-2.106-12.407-6.041-12.893-6.041-12.893 0.301 2.662-2.894 10.764-2.894 10.764-1.898 0.023-3.68 3.264-3.68 3.264 1.412-7.523-2.963-13.889-2.963-13.889-7.94-11.528-16.644-7.454-16.644-7.454 6.852 0 8.426 10 8.426 10-3.981 4.375 2.917 21.32 2.917 21.32l-12.199-14.931c-7.5-5.602-15-2.292-15-2.292 5.532 0.232 7.407 7.824 7.407 7.824 0.556 5.047 3.125 6.829 3.125 6.829 1.968 9.19 11.412 9.884 11.412 9.884"/><path d="m363.59 259.29h0.023c13.079-10.926 23.958-37.477 27.106-47.94 37.5-124.79 206.53-79.907 206.53-79.907-52.037-20.139-104.49-13.403-104.49-13.403s-78.009 3.866-106.71 68.31c-17.2 38.588-25.88 51.898-29.538 56.111l-0.023-0.023c-20 21.157-38.402 19.12-38.402 19.12 19.282-5.509 28.958-19.513 31.481-23.68 0-0 2.5-4.005 2.639-5.44-1.69 0.255-6.157 1.551-8.148 1.574-5.996 0.232-11.366-4.838-12.547-11.805-4.444 4.768-7.615 10.231-7.615 10.231 0.602-6.667 5.463-13.704 9.004-18.032 0.857-1.25 1.922-2.385 3.033-3.426 0.463-0.51 0.764-0.81 0.764-0.81l0.046 0.069c2.431-2.153 4.745-3.588 4.745-3.588s-9.027-5.301-9.444-14.815c-5.046 4.584-8.889 10.255-8.889 10.255 1.181-7.292 7.5-14.653 11.319-18.542 3.218-4.236 8.426-5.602 8.426-5.602s-9.629-1.921-8.055-18.472c-3.796 3.982-6.459 7.917-6.459 7.917 0.95-5.972 5.371-11.991 9.028-16.111 3.033-4.977 7.593-6.736 7.593-6.736-0.949-0.649-1.806-1.389-2.616-2.153-0.972-0.834-2.153-1.852-3.449-3.079-1.806-1.736-3.796-3.866-5.718-6.366-1.851-2.523-3.703-5.393-4.629-8.703-0.509-1.621-0.718-3.357-0.625-5.047 0.046-1.713 0.579-3.31 1.25-4.745 0.741-1.412 1.62-2.685 2.639-3.681 0.972-1.064 2.06-1.875 3.055-2.592 2.014-1.412 3.843-2.361 5.139-2.94 1.32-0.579 2.06-0.926 2.06-0.926s-0.717 0.394-1.99 1.042c-1.25 0.671-1.991 1.111-3.889 2.615-0.926 0.788-1.922 1.644-2.778 2.709-0.926 1.018-1.667 2.268-2.269 3.588-0.509 1.366-0.902 2.824-0.856 4.352 0.023 1.527 0.301 3.055 0.856 4.514 1.482 3.935 2.871 6.944 5.556 9.629-1.065-3.264-1.181-5.926-0.787-9.653 1.018-11.759 18.264-19.166 18.264-19.166s-1.968-2.408-6.273-2.894c-0 0-12.107-3.125-37.408 13.472-12.708-7.245-31.69-3.773-44.097 8.38 0 0-16.343-7.731-37.083 11.667l20.694 6.018c6.111 3.079 7.153 4.074 7.083 11.644 9.352-5.903 17.431-4.838 24.399-1.482 4.12 2.037 12.893 7.94 9.976 19.584-0.949 1.689-1.944 3.263-3.24 4.606-8.241 8.82-20.996 9.375-31.181 10.417-3.426 0.532-6.782 6.967-8.287 10.416l2.894-0.694c15.787-4.583 28.102 4.838 43.703-1.667 12.454-7.384 16.412-16.134 16.274-31.25-1.806-22.384-10-28.032-13.195-29.051-6.481-1.62-10.555 5.186-14.167 2.963-4.328-2.662-2.662-9.444-2.662-9.444 4.306-1.713 12.848 0.972 16.32 2.292 4.606 2.384 16.481 8.194 18.565 34.05 0.972 7.917 0.717 13.727 0.625 23.334-2.477 28.079-14.19 36.319-16.644 66.481 0.486 17.246 2.014 20.116 5.602 22.986 6.62 5.301 27.731 3.797 37.569-1.388 7.477-3.959 14.121-9.237 19.908-15.093"/><path d="m322.86 309.13c0.023-0.046 0.046-0.069 0.069-0.162-0.023 0.07-0.046 0.116-0.069 0.162"/><path d="m322.86 309.13c-0.023 0.07-0.023 0.07-0 0"/><path d="m322.92 308.96c0.046-0.116 0.092-0.231 0.139-0.301-0.07 0.116-0.093 0.232-0.139 0.301"/><path d="m643.47 368.46c-4.746-1.319-9.468 2.431-9.468 2.431l-9.768 3.564c-0.556 0.533-7.547-0.648-8.195-0.162-1.759-4.259-3.68-10.347-6.366-21.805l-0.023-0.093c-0.393-1.643-0.787-3.379-1.203-5.254h-0.047l-2.245-9.491-2.083-17.431s-0.139-0.463-0.348-1.203c-2.986-13.82-8.333-20.51-8.75-21.181v0.023c-15.277-24.514-47.268-35.301-47.615-35.37 1.412 0.278 29.328 4.838 46.736 25.231 8.009-1.759 15.694-4.653 23.426-8.981 33.055-18.496 52.315-67.593 25.416-101.18-26.574-33.148-79.838-18.009-85.671 12.037-4.722 24.422 13.75 37.361 13.75 37.361-4.444-15.694 15.741-32.824 15.741-32.824-5.741-6.99-21.32-1.713-21.32-1.713 15.764-32.824 45.602-22.615 45.602-22.615 45.371 17.43 35.347 74.12-6.157 89.583-13.565 5.046-27.361 3.148-39.607-1.597-17.87-8.982-9.398-36.042-9.398-36.042s-8.657 10.347-19.514 9.606h-0.023c0.972 6.181 4.352 12.801 4.352 12.801-6.111-4.814-9.028-17.453-9.028-17.453-2.824-6.968-2.5-18.866-3.611-15.209-1.574 5.232-5.787 13.889-18.611 14.931-0.116 0.023-0.231-0.023-0.347-0.023 2.315 4.722 5.509 8.727 5.509 8.727-4.491-2.269-8.287-7.963-10.44-11.736-4.028-5.649-5.44-17.084-5.44-17.084-9.166 17.014-35.416 20.671-45.486 21.25-15.301-1.829-11.25 18.472-11.25 18.472-5.532-2.916-6.805-6.898-13.912-6.967-3.24-0.185-9.722 1.643-12.546 3.866-8.056 4.838-14.259 12.916-15 34.097-7.662-6.181-15.44-2.57-23.194 3.125-0-0-1.945 10.995-7.963 16.412-9.653-5.278-20.463-7.292-22.894-7.361h0.023s-8.727-1.065-21.829 0.555c0 0 1.875 10.347-1.597 18.843 19.676 13.125 50.834-0.695 68.125-10.417 19.699-10.833 38.195-26.481 58.889-34.444 10.371-4.676 21.389-2.778 30.185 3.333 12.616 8.75 26.945 33.171 42.014 47.801 0.857 0.833 9.931 13.056 41.297 14.583-0 0 16.458-0.301 28.726 19.167 0.556 0.949 1.158 1.944 1.736 2.986 0.44 0.787 0.88 1.551 1.32 2.408 2.893 5.462 5.926 12.384 8.287 21.064-0.347 2.431-0.787 5.047-1.482 7.315-0.37 1.273-0.856 2.315-1.412 3.241h-0.023c-0.347 2.106-3.055-0.995-3.055-0.995-10.047-4.005-18.449 3.472-18.449 3.472-8.542 8.842-6.783 12.338-6.783 12.338 1.922-1.76 10-3.773 10-3.773 1.065 1.55 4.584 1.111 4.584 1.111-6.667 3.194-9.26 10.416-9.26 10.416-4.652 13.102 3.264 17.917 3.264 17.917-3.703-5.625 3.241-12.662 3.241-12.662 5.602 0.764 15.069-14.607 15.069-14.607l-4.976 18.565c-0.301 9.352 6.388 13.588 6.388 13.588-2.824-4.653 2.061-10.532 2.061-10.532 3.657-3.357 3.634-6.482 3.634-6.482 6.134-6.875 1.505-15.023 1.505-15.023-0.857-11.273 20.462-18.31 20.462-18.31 9.491-0.856 16.227-4.12 16.227-4.12 4.283-4.815 10.996-0.186 10.996-0.186-3.935-9.722-12.176-7.893-12.176-7.893"/><path d="m735.78 472.28-0.903 0.301c-10.37 6.875-84.166 49.19-271.88-5.764-228.68-66.944-368.15 48.172-368.15 48.172l1.806 0.439c20.509-10.694 160.49-78.495 371.2-16.875 203.73 59.63 267.92-26.273 267.92-26.273"/><path d="m415.23 1135.6s364.54-93.125 409.28-385.97l-1.667 1.945c-32.754 213.36-407.62 329.98-407.62 329.98h0.162s-374.86-116.62-407.62-329.98l-1.667-1.945c44.746 292.85 409.28 385.97 409.28 385.97"/><path d="m415.14 47.194c138.33 0 366.62 58.287 387.52 96.945 10.254 15.949 18.657 98.819 20.301 113.43l1.736 2.546s3.935-84.213 2.523-109.72c-2.963-52.824-189.05-146.85-412.08-146.85h0.347c-223.01-0-409.12 94.028-412.08 146.85-1.412 25.509 2.523 109.72 2.523 109.72l1.713-2.546c1.666-14.607 10.069-97.477 20.324-113.43 20.903-38.658 249.19-96.945 387.52-96.945"/></g></svg>
