<?xml version="1.0" encoding="UTF-8"?>
<!DOCTYPE svg  PUBLIC '-//W3C//DTD SVG 1.1//EN'  'http://www.w3.org/Graphics/SVG/1.1/DTD/svg11.dtd'>
<svg clip-rule="evenodd" fill-rule="evenodd" stroke-linejoin="round" stroke-miterlimit="2" version="1.1" viewBox="0 0 2925 825" xml:space="preserve" xmlns="http://www.w3.org/2000/svg"><g fill="#fff"><path d="m1684.2 482.75h-14.27l-30.042 82.913h-0.271l-29.225-82.913h-15.221l35.746 94.871h16.992l36.291-94.871z" fill-rule="nonzero"/><path d="m1744 562c-3.125 2.583-12.912 6.933-21.337 6.933-12.1 0-22.838-9.379-22.838-23.108h49.475c0-22.292-7.475-39.146-30.579-39.146-19.575-0-32.487 14.546-32.487 35.067-0 22.566 11.283 37.516 35.883 37.516 11.417 0 16.992-2.721 21.883-4.487v-12.775zm-44.175-25.688c0.955-8.975 6.117-19.304 18.621-19.304 11.013 0 17.263 8.7 17.263 19.304h-35.884z" fill-rule="nonzero"/><rect x="1768.1" y="475.68" width="12.779" height="101.94" fill-rule="nonzero"/><path d="m1805.9 577.62h12.775v-69.321h-12.775v69.321zm13.592-99.221h-14.408v14.409h14.408v-14.409z" fill-rule="nonzero"/><path d="m1842 577.62h12.779v-32.075c-0-16.854 6.525-28.546 21.066-28.546 11.146 0.679 14.68 8.563 14.68 24.738v35.883h12.779v-41.183c-0-18.621-8.021-29.767-25.963-29.767-9.65-0-18.896 4.758-22.7 12.642h-0.271v-11.013h-12.37v69.321z" fill-rule="nonzero"/><path d="m1974.1 577.62h12.233v-101.94h-12.774v42.138h-0.271c-3.942-6.388-10.875-11.146-22.971-11.146-20.117-0-29.904 16.446-29.904 35.067-0 18.896 8.833 37.516 29.766 37.516 12.367 0 20.255-6.254 23.65-11.416h0.271v9.783zm-40.096-34.929c-0.271-12.642 5.167-25.692 19.029-25.692 13.863 0 20.526 13.188 20.526 26.1-0 11.55-5.984 25.825-20.388 25.825-13.729 0-19.438-15.362-19.167-26.233z" fill-rule="nonzero"/><path d="m2008.1 577.62h12.776v-31.533c-0-17.396 7.475-28.271 18.891-28.271 2.175-0 4.758 0.271 7.071 1.225v-11.421c-2.721-0.542-4.621-0.95-8.429-0.95-7.338-0-14.679 5.167-18.075 12.371h-0.275v-10.742h-11.959v69.321z" fill-rule="nonzero"/><path d="m2114.1 562c-3.125 2.583-12.912 6.933-21.337 6.933-12.1 0-22.838-9.379-22.838-23.108h49.479c0-22.292-7.479-39.146-30.583-39.146-19.575-0-32.487 14.546-32.487 35.067-0 22.566 11.283 37.516 35.883 37.516 11.421 0 16.992-2.721 21.883-4.487v-12.775zm-44.175-25.688c0.954-8.975 6.117-19.304 18.625-19.304 11.009 0 17.259 8.7 17.259 19.304h-35.884z" fill-rule="nonzero"/><path d="m2249.4 482.75h-13.592v53.825c0 18.213-5.712 30.717-23.246 30.717-17.533-0-23.241-12.504-23.241-30.717v-53.825h-13.592v55.592c0 26.642 13.454 40.912 36.833 40.912 23.38 0 36.838-14.27 36.838-40.912v-55.592z" fill-rule="nonzero"/><path d="m2272.5 577.62h12.779v-32.075c0-16.854 6.525-28.546 21.067-28.546 11.146 0.679 14.679 8.563 14.679 24.738v35.883h12.779v-41.183c0-18.621-8.021-29.767-25.962-29.767-9.65-0-18.892 4.758-22.7 12.642h-0.271v-11.013h-12.371v69.321z" fill-rule="nonzero"/><path d="m2357.2 577.62h12.779v-69.321h-12.779v69.321zm13.596-99.221h-14.408v14.409h14.408v-14.409z" fill-rule="nonzero"/><path d="m2448.9 508.3h-12.779l-19.162 56.546h-0.271l-18.758-56.546h-14l24.874 69.321h15.221l24.875-69.321z" fill-rule="nonzero"/><path d="m2514.4 562c-3.125 2.583-12.913 6.933-21.338 6.933-12.095 0-22.837-9.379-22.837-23.108h49.479c0-22.292-7.479-39.146-30.583-39.146-19.575-0-32.488 14.546-32.488 35.067 0 22.566 11.283 37.516 35.883 37.516 11.421 0 16.992-2.721 21.884-4.487v-12.775zm-44.175-25.688c0.954-8.975 6.117-19.304 18.625-19.304 11.008 0 17.262 8.7 17.262 19.304h-35.887z" fill-rule="nonzero"/><path d="m2536.8 577.62h12.775v-31.533c-0-17.396 7.479-28.271 18.896-28.271 2.175-0 4.754 0.271 7.066 1.225v-11.421c-2.716-0.542-4.62-0.95-8.424-0.95-7.342-0-14.684 5.167-18.08 12.371h-0.27v-10.742h-11.963v69.321z" fill-rule="nonzero"/><path d="m2583.9 575.45c5.846 3.129 12.504 3.808 19.029 3.808 12.371 0 24.196-6.796 24.196-21.612 0-22.154-30.042-18.079-30.042-32.213 0-5.708 5.709-8.429 12.234-8.429 2.991 0 10.604 1.767 13.458 3.534l1.088-11.146c-5.029-1.492-9.925-2.717-15.904-2.717-13.73-0-24.467 6.933-24.467 21.342-0 19.433 30.037 18.345 30.037 30.987 0 7.475-7.2 9.925-13.045 9.925-3.671 0-10.876-1.633-15.905-4.896l-0.679 11.417z" fill-rule="nonzero"/><path d="m2644.2 577.62h12.775v-69.321h-12.775v69.321zm13.592-99.221h-14.408v14.409h14.408v-14.409z" fill-rule="nonzero"/><path d="m2717.2 508.3h-18.35v-20.112l-12.779 4.075v16.037h-15.629v10.333h15.629v40.505c-0 13.862 8.158 20.116 21.341 20.116 4.075 0 8.017-1.087 10.875-1.904v-10.875c-1.904 1.225-4.758 2.45-8.7 2.45-5.845 0-10.737-4.35-10.737-12.371v-37.921h18.35v-10.333z" fill-rule="nonzero"/><path d="m2727.3 606.85c2.309 0.408 4.621 0.95 8.696 0.95 16.854 0 21.883-15.358 26.642-28.679l25.554-70.817h-12.913l-19.029 57.363h-0.271l-18.621-57.363h-13.999l23.512 64.7c0.817 2.313 2.446 5.846 2.446 7.342-0 1.358-3.804 17.125-15.221 17.125-2.175-0-4.35-0.542-5.983-1.088l-0.813 10.467z" fill-rule="nonzero"/><path d="m1606.3 740.73h13.592v-78.021h0.271l42.954 78.021h17.396v-94.875h-13.592v76.392h-0.271l-41.867-76.392h-18.483v94.875z" fill-rule="nonzero"/><path d="m1705.3 740.73h13.592v-43.225h45.4v43.225h13.591v-94.875h-13.591v39.692h-45.4v-39.692h-13.592v94.875z" fill-rule="nonzero"/><path d="m1847.7 647.62c-6.521-2.308-14-3.396-20.25-3.396-17.125 0-30.446 8.971-30.446 25.825 0 29.496 40.775 23.65 40.775 44.854-0 11.146-10.875 15.496-18.621 15.496-6.933 0-15.087-2.721-19.708-4.621l-1.359 12.642c6.25 2.038 12.776 3.942 19.434 3.942 19.029-0 34.662-8.021 34.662-28.275 0-31.263-40.779-27.046-40.779-45.263 0-9.921 8.971-12.637 16.583-12.637 7.071-0 10.876 1.22 17.809 3.941l1.9-12.508z" fill-rule="nonzero"/><path d="m1927.4 740.73h13.592v-82.912h29.496v-11.963h-72.584v11.963h29.496v82.912z" fill-rule="nonzero"/><path d="m1972.8 740.73h12.779v-31.533c0-17.4 7.475-28.271 18.892-28.271 2.175 0 4.758 0.271 7.066 1.221v-11.417c-2.716-0.541-4.62-0.95-8.425-0.95-7.341 0-14.679 5.163-18.079 12.367h-0.271v-10.738h-11.962v69.321z" fill-rule="nonzero"/><path d="m2087 671.41h-12.775v32.08c-0 16.854-6.525 28.541-21.071 28.541-11.146-0.679-14.679-8.562-14.679-24.737v-35.884h-12.775v41.184c-0 18.625 8.017 29.771 25.962 29.771 9.65-0 18.892-4.759 22.696-12.642h0.275v11.008h12.367v-69.321z" fill-rule="nonzero"/><path d="m2102.8 738.56c5.846 3.125 12.504 3.809 19.029 3.809 12.367-0 24.192-6.8 24.192-21.613-0-22.158-30.038-18.079-30.038-32.216 0-5.709 5.709-8.425 12.234-8.425 2.991-0 10.6 1.766 13.458 3.533l1.083-11.146c-5.029-1.496-9.92-2.717-15.9-2.717-13.729 0-24.466 6.929-24.466 21.338-0 19.437 30.037 18.35 30.037 30.991 0 7.475-7.204 9.921-13.046 9.921-3.671 0-10.875-1.629-15.904-4.891l-0.679 11.416z" fill-rule="nonzero"/><path d="m2198.4 671.41h-18.35v-20.116l-12.779 4.079v16.037h-15.629v10.33h15.629v40.508c-0 13.862 8.158 20.117 21.342 20.117 4.079-0 8.02-1.088 10.875-1.904v-10.876c-1.904 1.226-4.759 2.446-8.7 2.446-5.846 0-10.738-4.35-10.738-12.366v-37.925h18.35v-10.33z" fill-rule="nonzero"/><rect x="1486.4" y="114.22" width="12.375" height="626.5"/><path d="m1629.3 211.34h13.583v-39.663l36.95-55.15h-15.896l-27.571 42.517-28.254-42.517h-15.891l37.079 55.15v39.663z" fill-rule="nonzero"/><path d="m1692.1 211.34h12.767v-34.909c-0-12.904 5.162-25.671 18.2-25.671 10.325 0 12.362 10.73 12.362 19.288v41.292h12.767v-34.909c-0-12.904 5.162-25.671 18.204-25.671 10.321 0 12.358 10.73 12.358 19.288v41.292h12.771v-44.417c0-15.079-6.383-26.487-24.042-26.487-6.25-0-16.708 3.533-21.462 13.445-3.667-9.371-11.683-13.445-19.696-13.445-10.187-0-17.117 3.666-22.004 11.683h-0.275v-10.054h-11.95v69.275z" fill-rule="nonzero"/><path d="m1862 211.34h12.225v-101.88h-12.767v42.108h-0.27c-3.942-6.383-10.867-11.137-22.959-11.137-20.104-0-29.883 16.437-29.883 35.045-0 18.88 8.829 37.488 29.75 37.488 12.358-0 20.237-6.246 23.633-11.408h0.271v9.779zm-40.071-34.909c-0.271-12.633 5.163-25.671 19.017-25.671s20.512 13.176 20.512 26.08c0 11.545-5.979 25.808-20.375 25.808-13.721 0-19.425-15.35-19.154-26.217z" fill-rule="nonzero"/><path d="m1945 211.34h12.225v-101.88h-12.771v42.108h-0.271c-3.937-6.383-10.866-11.137-22.954-11.137-20.104-0-29.883 16.437-29.883 35.045-0 18.88 8.829 37.488 29.745 37.488 12.363-0 20.242-6.246 23.638-11.408h0.271v9.779zm-40.071-34.909c-0.271-12.633 5.163-25.671 19.017-25.671s20.508 13.176 20.508 26.08c0 11.545-5.975 25.808-20.375 25.808-13.717 0-19.421-15.35-19.15-26.217z" fill-rule="nonzero"/><path d="m1980.6 211.34h12.767v-69.275h-12.767v69.275zm13.584-99.159h-14.4v14.4h14.4v-14.4z" fill-rule="nonzero"/><path d="m2016.7 211.34h12.766v-31.513c0-17.387 7.471-28.254 18.88-28.254 2.175 0 4.754 0.271 7.066 1.225v-11.413c-2.716-0.541-4.621-0.949-8.425-0.949-7.333-0-14.667 5.162-18.062 12.362h-0.275v-10.733h-11.95v69.275z" fill-rule="nonzero"/><path d="m2071.2 211.34h12.771v-69.275h-12.771v69.275zm13.584-99.159h-14.396v14.4h14.396v-14.4z" fill-rule="nonzero"/><path d="m2160.4 195.72c-3.121 2.583-12.904 6.929-21.325 6.929-12.087 0-22.821-9.375-22.821-23.092h49.446c0-22.279-7.471-39.12-30.562-39.12-19.563-0-32.467 14.533-32.467 35.045-0 22.546 11.275 37.488 35.862 37.488 11.409-0 16.98-2.717 21.867-4.479v-12.771zm-44.146-25.671c0.954-8.967 6.113-19.288 18.613-19.288 11 0 17.25 8.692 17.25 19.288h-35.863z" fill-rule="nonzero"/><path d="m2231.9 211.34h12.225v-101.88h-12.767v42.108h-0.275c-3.937-6.383-10.866-11.137-22.954-11.137-20.104-0-29.883 16.437-29.883 35.045-0 18.88 8.829 37.488 29.746 37.488 12.362-0 20.241-6.246 23.637-11.408h0.271v9.779zm-40.071-34.909c-0.271-12.633 5.163-25.671 19.017-25.671s20.512 13.176 20.512 26.08c0 11.545-5.979 25.808-20.375 25.808-13.72 0-19.425-15.35-19.154-26.217z" fill-rule="nonzero"/><path d="m2261.2 176.7c-0 19.834 14.396 36.267 35.316 36.267 20.78-0 35.18-16.433 35.18-36.267-0-21.054-14.126-36.266-35.18-36.266-21.191-0-35.316 15.212-35.316 36.266zm13.583 0c0-13.175 8.012-25.942 21.733-25.942 13.584 0 21.596 12.767 21.596 25.942 0 12.363-6.654 25.946-21.596 25.946-15.079 0-21.733-13.583-21.733-25.946z" fill-rule="nonzero"/><rect x="2350.5" y="109.47" width="12.767" height="101.88" fill-rule="nonzero"/><path d="m2390.6 157.82c5.163-4.346 12.904-7.063 20.104-7.063 12.767 0 17.113 6.113 17.113 18.063-5.025-0.271-8.558-0.271-13.583-0.271-13.176 0-32.192 5.434-32.192 22.821-0 15.079 10.458 21.596 25.4 21.596 11.683-0 18.475-6.384 21.462-10.592h0.271v8.963h11.954c-0.271-2.038-0.541-5.705-0.541-13.584v-28.658c-0-18.883-8.017-28.662-27.846-28.662-8.829-0-16.438 2.716-22.821 6.52l0.679 10.867zm37.217 26.621c-0 10.325-6.654 18.204-19.288 18.204-5.841 0-12.904-3.942-12.904-11.275 0-12.225 17.117-13.312 24.042-13.312 2.717-0 5.433 0.27 8.15 0.27v6.113z" fill-rule="nonzero"/><path d="m2515.2 195.72c-3.125 2.583-12.904 6.929-21.329 6.929-12.088 0-22.817-9.375-22.817-23.092h49.442c-0-22.279-7.471-39.12-30.563-39.12-19.558-0-32.462 14.533-32.462 35.045-0 22.546 11.271 37.488 35.858 37.488 11.408-0 16.979-2.717 21.871-4.479v-12.771zm-44.146-25.671c0.95-8.967 6.113-19.288 18.609-19.288 11 0 17.25 8.692 17.25 19.288h-35.859z" fill-rule="nonzero"/><path d="m2574.5 142.07h-18.338v-20.105l-12.766 4.075v16.03h-15.621v10.325h15.621v40.479c-0 13.854 8.15 20.1 21.325 20.1 4.075-0 8.012-1.084 10.866-1.9v-10.867c-1.9 1.221-4.754 2.446-8.691 2.446-5.842 0-10.734-4.346-10.734-12.362v-37.896h18.338v-10.325z" fill-rule="nonzero"/><path d="m2590.5 211.34h12.767v-32.054c-0-16.846 6.52-28.526 21.054-28.526 11.141 0.68 14.671 8.555 14.671 24.721v35.859h12.77v-41.159c0-18.608-8.016-29.745-25.945-29.745-9.646-0-17.659 4.212-22.275 11.545h-0.275v-42.516h-12.767v101.88z" fill-rule="nonzero"/><path d="m2785.6 119.65c-7.879-2.716-13.991-4.754-27.845-4.754-28.934 0-50.126 19.425-50.126 48.629 0 30.154 19.967 49.442 49.988 49.442 14.804-0 23.771-2.442 28.933-4.209v-49.308h-33.55v11.138h19.967v28.795c-3.396 0.68-5.842 1.634-15.212 1.634-19.696-0-35.726-14.809-35.726-37.083 0-21.192 14.534-37.084 36.405-37.084 12.225 0 19.42 2.175 26.079 6.521l1.087-13.721z" fill-rule="nonzero"/><rect x="2810.6" y="116.53" width="13.583" height="94.813" fill-rule="nonzero"/><path d="m2921.4 119.65c-7.88-2.716-13.992-4.754-27.846-4.754-28.933 0-50.125 19.425-50.125 48.629-0 30.154 19.967 49.442 49.987 49.442 14.805-0 23.771-2.442 28.934-4.209v-49.308h-33.55v11.138h19.966v28.795c-3.396 0.68-5.841 1.634-15.212 1.634-19.696-0-35.725-14.809-35.725-37.083-0-21.192 14.533-37.084 36.404-37.084 12.225 0 19.421 2.175 26.079 6.521l1.088-13.721z" fill-rule="nonzero"/><path d="m1615.6 291.48h11.546c8.421 0 20.916 4.346 20.916 16.3 0 12.496-10.595 16.709-19.016 16.709h-13.446v-33.009zm-13.583 82.859h13.583v-37.896h13.313c17.112-0 33.55-7.471 33.55-28.525-0-21.6-16.167-28.392-35.588-28.392h-24.858v94.813z" fill-rule="nonzero"/><path d="m1677.2 374.34h12.767v-31.513c0-17.387 7.471-28.254 18.879-28.254 2.175 0 4.754 0.271 7.067 1.225v-11.412c-2.717-0.542-4.621-0.951-8.425-0.951-7.333 0-14.667 5.163-18.063 12.363h-0.275v-10.733h-11.95v69.275z" fill-rule="nonzero"/><path d="m1731.6 374.34h12.771v-69.275h-12.771v69.275zm13.583-99.159h-14.396v14.4h14.396v-14.4z" fill-rule="nonzero"/><path d="m1776 374.34h12.771v-58.95h18.337v-10.325h-18.337v-7.471c-0-9.371 1.358-16.433 12.358-16.433 2.175-0 4.621 0.27 6.112 0.812l0.546-10.321c-2.583-0.408-5.3-0.816-8.558-0.816-18.879-0-23.229 11.004-23.229 27.845v6.384h-16.3v10.325h16.3v58.95z" fill-rule="nonzero"/><path d="m1814.6 403.55c2.308 0.408 4.617 0.95 8.692 0.95 16.845-0 21.87-15.346 26.624-28.659l25.538-70.77h-12.904l-19.017 57.32h-0.275l-18.608-57.32h-13.992l23.5 64.658c0.817 2.308 2.446 5.842 2.446 7.333 0 1.359-3.804 17.117-15.212 17.117-2.175-0-4.346-0.546-5.98-1.087l-0.812 10.458z" fill-rule="nonzero"/><path d="m1882.7 372.17c5.842 3.121 12.5 3.8 19.016 3.8 12.363-0 24.18-6.792 24.18-21.596-0-22.142-30.017-18.067-30.017-32.192-0-5.704 5.704-8.42 12.225-8.42 2.987-0 10.592 1.762 13.446 3.529l1.087-11.138c-5.025-1.496-9.916-2.717-15.891-2.717-13.721 0-24.45 6.93-24.45 21.326-0 19.425 30.016 18.337 30.016 30.97 0 7.471-7.2 9.917-13.037 9.917-3.671-0-10.867-1.629-15.896-4.892l-0.679 11.413z" fill-rule="nonzero"/><path d="m2002.6 305.07h-11.817v10.325h-0.271c-3.804-7.471-10.596-11.955-22.821-11.955-20.916 0-30.971 19.017-30.971 36.813 0 17.929 9.779 34.092 29.613 34.092 8.829-0 17.796-3.529 23.229-10.73h0.271v6.792c-0 14.671-8.017 23.771-21.463 23.771-9.371-0-15.212-1.767-24.991-6.25l-1.359 11.817c11.138 3.804 17.521 4.754 24.855 4.754 24.858-0 35.725-12.088 35.725-33.142v-66.287zm-33.009 58.954c-11.95-0-19.287-11.413-19.287-24.45-0-11.821 6.383-25.808 19.287-25.808 13.583-0 20.242 12.358 20.242 26.758-0 12.904-8.288 23.5-20.242 23.5z" fill-rule="nonzero"/><path d="m2019.7 339.7c0 19.834 14.396 36.267 35.317 36.267 20.783-0 35.179-16.433 35.179-36.267-0-21.054-14.125-36.267-35.179-36.267-21.192 0-35.317 15.213-35.317 36.267zm13.583 0c0-13.175 8.013-25.941 21.734-25.941 13.583-0 21.596 12.766 21.596 25.941-0 12.363-6.655 25.946-21.596 25.946-15.079-0-21.734-13.583-21.734-25.946z" fill-rule="nonzero"/><rect x="2109" y="272.47" width="12.767" height="101.88" fill-rule="nonzero"/><path d="m2183.3 374.34h13.583v-43.196h35.184v-11.95h-35.184v-27.713h36.813v-11.954h-50.396v94.813z" fill-rule="nonzero"/><path d="m2303.9 358.72c-3.125 2.583-12.905 6.929-21.325 6.929-12.092-0-22.821-9.375-22.821-23.092h49.442c-0-22.279-7.471-39.121-30.563-39.121-19.558 0-32.463 14.534-32.463 35.046 0 22.546 11.275 37.488 35.859 37.488 11.412-0 16.979-2.717 21.871-4.479v-12.771zm-44.146-25.671c0.95-8.967 6.112-19.287 18.608-19.287 11.004-0 17.25 8.691 17.25 19.287h-35.858z" fill-rule="nonzero"/><rect x="2327.9" y="272.47" width="12.771" height="101.88" fill-rule="nonzero"/><path d="m2365.7 374.34h12.766v-69.275h-12.766v69.275zm13.583-99.159h-14.4v14.4h14.4v-14.4z" fill-rule="nonzero"/><path d="m2401.8 374.34h12.767v-32.054c-0-16.846 6.521-28.525 21.054-28.525 11.138 0.679 14.671 8.554 14.671 24.72v35.859h12.766v-41.159c0-18.608-8.012-29.746-25.941-29.746-9.646 0-18.884 4.755-22.688 12.634h-0.27v-11.004h-12.359v69.275z" fill-rule="nonzero"/><path d="m2533.9 374.34h12.225v-101.88h-12.771v42.108h-0.27c-3.938-6.383-10.867-11.138-22.954-11.138-20.105 0-29.884 16.438-29.884 35.046 0 18.879 8.829 37.488 29.746 37.488 12.362-0 20.242-6.246 23.637-11.408h0.271v9.779zm-40.071-34.909c-0.27-12.633 5.163-25.67 19.017-25.67s20.508 13.174 20.508 26.079c0 11.546-5.975 25.808-20.375 25.808-13.716-0-19.42-15.35-19.15-26.217z" fill-rule="nonzero"/><path d="m2567.8 374.34h12.766v-31.513c0-17.387 7.471-28.254 18.884-28.254 2.171 0 4.754 0.271 7.062 1.225v-11.412c-2.717-0.542-4.621-0.951-8.421-0.951-7.337 0-14.67 5.163-18.066 12.363h-0.271v-10.733h-11.954v69.275z" fill-rule="nonzero"/><path d="m2673.8 358.72c-3.125 2.583-12.905 6.929-21.325 6.929-12.092-0-22.821-9.375-22.821-23.092h49.441c0-22.279-7.47-39.121-30.562-39.121-19.558 0-32.463 14.534-32.463 35.046 0 22.546 11.275 37.488 35.859 37.488 11.412-0 16.979-2.717 21.871-4.479v-12.771zm-44.146-25.671c0.95-8.967 6.112-19.287 18.608-19.287 11.004-0 17.25 8.691 17.25 19.287h-35.858z" fill-rule="nonzero"/><path d="m457.78 241.84c54.084-72.792 43.138-142.7-43.558-210.66-92.95 72.863-97.067 147.75-37.917 219.58 8.746 10.221 37.917 37.938 37.917 37.938s32.421-0.617 81.725 18.954c-0-0-22.392-39.225-54.575-67-37.079-31.983-78.296-89.208-27.15-136.62 34.525 32.008 26.958 68.487 6.996 98.658-0 0 2.275 7.296 26.954 30.217 3.566 3.308 6.371 6.429 9.608 8.938z" fill-rule="nonzero"/><path d="m405.51 295.1s-24.554 26.117-38.287 69.779c-12.262 38.958-13.508 76.737-13.508 76.737-20.705-4.895-51.192-30.449-51.192-30.449 3.387-47.746 21.454-88.88 21.454-88.88 14.117-36.875 44.308-64.45 44.308-64.45l37.225 37.263z" fill-rule="nonzero"/><path d="m244.6 367.98c-72.779-54.079-142.7-43.141-210.64 43.567 72.845 92.942 147.73 97.063 219.57 37.908 10.225-8.745 37.933-37.908 37.933-37.908s-0.608-32.429 18.971-81.733c0-0-39.229 22.391-67.004 54.575-31.996 37.079-89.204 78.295-136.64 27.158 32.02-34.533 68.5-26.962 98.671-7.004-0-0 7.287-2.275 30.216-26.954 3.3-3.567 6.433-6.375 8.925-9.609z" fill-rule="nonzero"/><path d="m297.86 420.25s26.113 24.554 69.78 38.292c38.954 12.258 76.737 13.504 76.737 13.504-4.896 20.696-30.437 51.196-30.437 51.196-47.759-3.396-88.88-21.463-88.88-21.463-36.891-14.112-64.458-44.308-64.458-44.308l37.258-37.221z" fill-rule="nonzero"/><path d="m370.75 581.16c-54.075 72.77-43.129 142.7 43.567 210.65 92.941-72.859 97.066-147.75 37.925-219.58-8.75-10.221-37.925-37.946-37.925-37.946s-32.413 0.616-81.73-18.954c0-0 22.392 39.212 54.584 66.996 37.075 31.995 78.291 89.204 27.146 136.64-34.534-32.013-26.959-68.492-6.988-98.671 0 0-2.283-7.287-26.971-30.208-3.554-3.309-6.366-6.442-9.608-8.933z" fill-rule="nonzero"/><path d="m423.03 527.9s24.554-26.117 38.292-69.779c12.254-38.959 13.504-76.738 13.504-76.738 20.696 4.9 51.192 30.438 51.192 30.438-3.396 47.758-21.454 88.879-21.454 88.879-14.117 36.888-44.309 64.471-44.309 64.471l-37.225-37.271z" fill-rule="nonzero"/><path d="m583.92 455.01c72.787 54.07 142.7 43.133 210.65-43.567-72.858-92.946-147.74-97.071-219.58-37.913-10.221 8.75-37.937 37.913-37.937 37.913s0.616 32.408-18.954 81.729c-0-0 39.225-22.392 67-54.583 31.991-37.071 89.208-78.284 136.63-27.146-32.021 34.533-68.5 26.958-98.667 6.987 0 0-7.291 2.292-30.221 26.967-3.308 3.558-6.429 6.375-8.933 9.613z" fill-rule="nonzero"/><path d="m530.67 402.75s-26.109-24.559-69.771-38.296c-38.959-12.262-76.738-13.504-76.738-13.504 4.888-20.7 30.442-51.196 30.442-51.196 47.754 3.396 88.879 21.463 88.879 21.463 36.879 14.112 64.454 44.304 64.454 44.304l-37.266 37.229z" fill-rule="nonzero"/><path d="m117.83 330.12c12.884-4.096 26.617-6.342 40.859-6.342 5.708 0 11.296 0.329 16.825 1.017 25.633-70.538 81.775-126.56 152.34-152.13-0.629-5.287-0.787-10.683-0.787-16.133-0-14.521 2.25-28.512 6.512-41.604-104.62 28.388-187.12 110.66-215.75 215.19z" fill-rule="nonzero"/><path d="m332.89 707.94c-4.1-12.884-6.333-26.617-6.333-40.859 0-5.7 0.321-11.296 1.013-16.825-70.542-25.625-126.56-81.775-152.14-152.35-5.283 0.629-10.679 0.788-16.121 0.788-14.529-0-28.517-2.246-41.616-6.513 28.404 104.63 110.67 187.14 215.2 215.76z" fill-rule="nonzero"/><path d="m710.71 492.88c-12.883 4.096-26.62 6.333-40.866 6.333-5.704 0-11.304-0.32-16.817-1.02-25.642 70.545-81.783 126.58-152.34 152.15 0.629 5.287 0.779 10.679 0.779 16.12-0 14.53-2.246 28.521-6.504 41.617 104.62-28.388 187.12-110.66 215.75-215.2z" fill-rule="nonzero"/><path d="m495.65 115.07c4.108 12.871 6.342 26.616 6.342 40.858-0 5.7-0.329 11.296-1.017 16.825 70.537 25.625 126.56 81.762 152.14 152.32 5.276-0.629 10.671-0.771 16.126-0.771 14.524 0 28.504 2.25 41.62 6.496-28.404-104.62-110.68-187.11-215.21-215.73z" fill-rule="nonzero"/><path d="m882.9 539.86v-87.046h4.433l128.22 137.09 1.817 1.559c0.529-9.396 0.787-19.03 0.787-28.409v-83.387l-1.041-20.867-0.259-2.071c3.646 0.513 7.559 0.771 11.209 0.771 2.075 0 4.425-0.258 6.516-0.771-0.258 2.071-0.258 4.167-0.537 6.258l-1.296 25.538-2.35 61.758-0.771 58.375 0.771 29.446h-3.908c-5.213-6.258-10.421-12.512-15.892-18.496l-42.479-47.175-72.708-77.396-0.517 24.496c-0.263 13.03-0 25.8-0 38.567v20.85l0.771 30.754 1.312 25.025c-5.991-1.046-11.987-1.046-17.979 0 1.033-11.466 1.825-22.937 2.083-34.404l1.817-60.462z" fill-rule="nonzero"/><path d="m1104.1 544.29 0.788 56.546 1.045 28.146 0.513 5.742c-3.908-0.267-8.067-1.296-11.979-1.296-4.692-0-9.117 1.029-13.813 1.296 0.259-1.829 0.259-3.917 0.529-5.742l1.042-20.583 1.033-60.971v-63.6l-1.3-27.633c4.434 0.279 8.859 1.045 13.296 1.045 3.909 0 8.071-0.516 11.979-0.766-0.254 2.329-0.254 4.679-0.512 7.025l-1.042 23.712-1.308 45.355 33.621 0.787 74.529-0.787v-55.25l-1.3-21.121c4.425 0.279 8.862 1.045 13.283 1.045 4.167 0 8.088-0.516 12.254-0.766-0.512 2.329-0.512 4.679-0.787 7.025l-2.346 84.958 0.783 58.638 1.309 27.629c-3.913-0.267-7.821-1.296-11.73-1.296-4.695-0-9.12 1.029-13.816 1.296 0.262-1.829 0.262-3.917 0.529-5.742l1.304-26.837 0.779-57.855h-108.68z" fill-rule="nonzero"/><path d="m1279.2 600.32c10.162 16.679 21.892 26.571 42.221 26.571 21.1-0 36.221-16.938 36.221-37.525-0-17.45-11.725-26.313-26.334-32.825-12.241-5.742-25.537-9.909-36.737-17.467-11.733-7.817-18.513-21.638-18.513-35.713 0-33.608 26.588-50.029 57.855-50.029 12.516 0 27.637 3.909 37.27 12.513-3.125 6.771-4.954 14.071-7.029 21.358h-2.604c-5.488-14.058-16.937-23.45-32.317-23.45-17.996 0-32.837 12.771-32.837 31.279-0 9.892 3.646 17.984 11.204 24.242 4.167 3.65 5.208 3.908 10.167 6.242 3.125 1.575 6.516 3.133 9.896 4.437 3.904 1.563 7.829 3.117 11.725 4.954 3.908 1.817 8.341 3.38 11.995 5.467 5.73 3.125 12.242 6.258 16.417 11.212 6.517 8.076 10.683 16.938 10.683 27.617 0 37.267-28.937 58.896-64.371 58.896-12.77 0-33.625-4.95-42.47-14.592 2.604-7.554 3.904-15.371 4.954-23.187h2.604z" fill-rule="nonzero"/><path d="m912.59 743.57c-1.821-0.342-3.879-0.571-5.817-0.571-1.925-0-3.987 0.229-5.921 0.571-6.5-25.083-14.25-49.838-21.891-74.692l-0.809-3.304c3.088 0.233 6.163 0.571 9.242 0.571 3.071-0 6.271-0.338 9.354-0.571 4.558 19.158 9.8 38.083 15.05 57.012 6.492-19.041 13.904-37.741 19.717-57.012 1.941 0.342 3.883 0.571 5.812 0.571 1.829-0 3.767-0.229 5.588-0.571 5.137 19.271 12.554 37.85 18.137 57.012 6.042-18.816 12.079-37.741 16.875-57.012 1.704 0.233 3.408 0.571 5.125 0.571 1.7-0 3.538-0.229 5.129-0.571v0.917c-9.354 25.429-18.237 51.083-26.104 77.079-1.829-0.342-3.879-0.571-5.816-0.571-1.934-0-3.996 0.229-5.93 0.571-5.016-18.813-11.512-37.179-18.129-55.421-6.383 18.129-13.112 36.042-19.271 54.279l-0.341 1.142z" fill-rule="nonzero"/><path d="m1028.1 742.66 8.433-19.5c8.434-19.15 16.521-38.537 23.709-58.254 1.487 0.233 2.845 0.563 4.337 0.563 1.471-0 2.846-0.33 4.325-0.563l0.8 1.938c9.462 24.962 19.388 49.821 29.879 74.441l0.571 1.267v1.029c-3.204-0.233-6.517-0.575-9.688-0.575-3.195 0-6.387 0.229-9.583 0.575-2.404-7.879-4.796-15.621-7.871-23.267-4.225-0.116-8.321-0.341-12.541-0.341-4.679-0-9.23 0.108-13.9 0.225l-0.575 1.604c-2.505 7.171-5.35 14.246-7.188 21.779-1.704-0.346-3.533-0.575-5.354-0.575-1.717 0-3.65 0.229-5.354 0.575v-0.921zm21.433-29.304h20.854c-3.187-8.892-6.608-17.783-10.145-26.554-3.651 8.429-7.188 16.862-10.367 25.525l-0.342 1.029z" fill-rule="nonzero"/><path d="m1147.6 665.58c3.083 0.229 6.158 0.571 9.237 0.571 3.075-0 6.271-0.342 9.35-0.571-0.229 6.842-0.8 13.571-0.904 20.417-0.113 4.45-0.113 8.887-0.113 13.341v21.546c0 4.784 0.217 9.58 0.217 14.363l6.154-0.229c6.73-0.117 13.338-0.675 19.954-1.246-0.341 1.587-0.454 3.304-0.454 4.896 0 1.604 0.113 3.304 0.454 4.908l-19.254-0.688c-5.258-0.112-10.379 0.346-15.52 0.346-3.188 0-6.267 0.113-9.463 0.342 0.804-12.325 1.033-24.637 1.033-36.95 0-4.554 0.113-9.121 0.113-13.671-0-8.45-0.454-16.767-0.683-25.2l-0.121-2.175z" fill-rule="nonzero"/><path d="m1240.9 665.58c6.041 0.113 12.083 0.688 18.141 0.688 8.546-0 17.2-0.459 25.754-0.575-0.579 2.75-0.579 5.6-0.229 8.45 0.117 0.441 0.117 0.9 0.229 1.358-8.662-0.671-17.324-1.588-25.999-1.358-0.101 3.979-0.217 7.858-0.217 11.854-0 4.221-0.109 8.429-0.109 12.654l25.871-0.917c-0.237 1.834-0.562 3.538-0.562 5.371-0 1.475 0.325 2.846 0.562 4.321-6.72-0.458-13.45-0.8-20.287-0.917-1.821 0-3.771-0.112-5.584-0.112 0 4.796-0.12 9.692-0.12 14.487-0 4.784 0.12 9.58 0.12 14.363 8.771-0 17.546-0.575 26.325-1.475-0.579 2.733-0.579 5.583-0.229 8.429 0.117 0.458 0.117 0.917 0.229 1.375-6.829-0.113-13.783-0.688-20.633-0.688-4.446 0-9.004 0.346-13.454 0.346-3.425 0-6.729 0.113-10.15 0.342 0.229-2.175 0.229-4.338 0.342-6.5 0.229-7.071 0.454-14.142 0.571-21.329-0-5.7 0.116-11.513 0.116-17.325v-13.342c0-5.929-0.458-12.083-0.687-18.012v-1.488z" fill-rule="nonzero"/><path d="m1370.2 680.98c-2.279-5.941-6.616-9.691-13.116-9.691-3.763-0-6.267 0.441-9.117 3.079-2.279 2.046-3.425 4.779-3.425 7.858 0 12.084 26.904 14.704 32.729 28.046 1.359 2.963 1.929 6.958 1.929 10.15 0 3.421-1.245 7.746-2.733 10.708-2.621 5.484-6.729 8.563-12.083 11.063-5.121 2.396-9.809 2.971-15.392 2.971-6.266-0-12.996-1.492-18.35-4.784 1.358-4.8 2.621-9.483 3.304-14.375h2.163c1.704 7.759 7.862 12.196 15.733 12.196 7.063 0 13.346-3.762 13.346-11.508-0-3.879-1.492-6.154-4.225-8.775-3.996-2.85-8.317-5.142-12.767-7.188-3.191-1.487-6.162-3.771-9.125-5.583-5.583-3.421-7.858-10.837-7.858-17.112-0-7.855 2.617-13.096 8.658-18.009 5.588-4.45 10.596-5.583 17.675-5.583 6.038-0 11.734 1.246 16.992 4.554 0.342 0.342 0.683 0.454 1.017 0.796-1.359 3.654-2.505 7.421-3.654 11.187h-1.701z" fill-rule="nonzero"/><path d="m949.88 399.7-2.516 9.692c-6.834 3.52-14.934 4.896-22.571 4.896-5.7-0-9.346-0.571-14.933-1.705-3.192-0.687-9.688-3.766-12.542-5.595-2.963-2.046-6.038-5.242-8.204-8.088-5.013-6.733-7.188-14.133-7.188-22.579 0-13 3.192-23.592 13.113-32.384 8.779-7.633 20.866-10.479 32.27-10.479 7.517 0 16.638 1.929 23.25 5.467-1.024 3.879-1.704 7.754-2.62 11.625h-1.596c-4.217-6.042-11.517-10.021-18.917-10.021-18.933 0-26.687 17.667-26.687 34.204-0 8.088 1.712 16.521 6.729 23.134 4.791 6.266 12.654 9.691 20.521 9.691 7.066 0 15.283-3.65 20.412-8.429l1.479 0.571z" fill-rule="nonzero"/><path d="m994.35 335.39c3.417 0 6.842-0.229 10.15-0.687 1.583 3.308 3.188 6.729 4.783 10.037 1.717 3.65 3.417 7.188 5.134 10.721 1.596 3.309 3.312 6.617 4.9 9.921 0.575 1.246 1.262 2.85 2.279 3.754-0 0.342 1.717-2.162 1.833-2.279 0.671-1.129 1.359-2.387 1.925-3.533 2.396-4.442 4.567-9.008 6.734-13.446 1.487-3.092 2.845-6.271 4.22-9.346 0.792-1.95 1.588-3.767 2.509-5.712 0.454 0.112 0.904 0.112 1.358 0.229 3.092 0.571 6.288 0.341 9.35-0.229-7.975 14.946-16.521 28.733-23.708 43.333-0.113 4.325-0.234 8.779-0.234 13.1 0 7.188 0.692 14.371 1.146 21.562-3.187-0.229-6.496-0.575-9.691-0.575-3.305 0-6.496 0.23-9.692 0.575 0.804-8.675 1.262-17.337 1.262-26 0.096-2.162 0.096-4.225 0.096-6.383-8.541-14.704-16.058-30.108-24.625-45.612 3.425 0.229 6.85 0.57 10.271 0.57z" fill-rule="nonzero"/><path d="m1093.6 334.82c1.488 0.112 3.079 0.575 4.567 0.575 1.588-0 3.192-0.342 4.671-0.575 8.333 18.254 17.333 36.033 26.337 53.929l6.717-13.113c6.958-13.441 13.571-27.012 19.842-40.816 0.454 0.112 0.804 0.112 1.262 0.233 2.846 0.454 5.696 0.342 8.429-0.233 1.95 17.795 4.113 35.575 6.271 53.362 0.804 6.613 1.838 13.225 2.738 19.838 0.229 1.375 0.8 3.191 0.8 4.795-3.075-0.229-6.267-0.57-9.35-0.57-3.075-0-6.155 0.341-9.229 0.57-0.809-17.566-3.084-35.004-4.788-52.566-8.675 17.45-17.217 34.892-25.308 52.566-1.488-0.229-2.846-0.337-4.342 0l-8.775-18.254c-5.233-11.046-10.838-22-16.192-33.054-0.8 6.733-1.704 13.458-2.387 20.171-0.342 4.337-0.804 8.562-1.15 12.883-0.225 3.767-0.567 7.417-0.796 11.184-0.112 2.396-0.233 4.671-0.463 7.07-1.704-0.337-3.516-0.57-5.354-0.57-1.704-0-3.533 0.233-5.241 0.57-0-1.145 0.575-3.42 0.804-4.22 1.246-5.7 2.046-11.513 3.079-17.338 1.246-7.4 2.163-14.821 3.196-22.233l4.662-34.204z" fill-rule="nonzero"/><path d="m1236.4 383.28c-1.033-1.933-2.167-3.996-3.313-5.812-0.341-0.459-0.229-0.571-0.795-0.688-0 0-0.579 0-0.579 0.688-0 6.729 0.229 13.57 0.229 20.291 0.12 1.025 0.12 2.059 0.12 3.075 0.109 3.992 0.571 7.988 0.796 11.979-3.075-0.229-6.15-0.57-9.233-0.57-3.079-0-6.154 0.341-9.229 0.57l0.108-2.174c0.117-2.505 0.234-5.009 0.458-7.517 0.575-7.417 0.575-14.946 0.575-22.463 0-6.841-0.116-13.796-0.116-20.641-0-8.43-0.342-16.754-0.8-25.2l7.858 0.229c5.475 0.117 10.954-0.342 16.421-0.342 5.354 0 13.687-0.216 18.358 2.404 6.617 3.75 10.034 8.892 10.034 16.638-0 11.179-7.188 18.237-17.784 20.529 6.271 10.937 13.334 21.429 20.175 32.042l4.113 6.495c-3.425-0.229-6.958-0.57-10.383-0.57-3.421-0-6.846 0.229-10.251 0.57l-13.229-23.375-3.533-6.158zm-4.338-28.504c0 2.963-0.12 5.925-0.12 8.892-0 2.733-0 5.466-0.113 8.22 11.871 1.126 17.796-4.57 17.796-16.308-0-2.392-0.117-3.304-0.575-5.7-2.046-9.462-9.233-8.216-16.988-8.675v13.571z" fill-rule="nonzero"/><path d="m1381 351.47c-0.112 3.65-0.333 7.416-0.333 11.187-0 4.204-0.229 8.425-0.342 12.521-0.229 13.004-0.112 24.867-11.971 33.071-6.171 4.454-14.021 6.042-21.558 6.042-13.788-0-28.721-4.338-32.942-19.155-0.57-2.05-0.8-4.096-1.025-6.158-0.35-2.504-0.237-5.237-0.237-7.858-0.113-4.684-0.229-9.35-0.229-14.142-0-4.667-0.113-9.467-0.113-14.25 0-4.338-0.112-8.788-0.112-13.112-0-1.6-0.221-3.188-0.221-4.796 3.196 0.233 6.258 0.575 9.454 0.575 3.096-0 6.171-0.234 9.229-0.688-0.096 1.829-0.325 3.763-0.554 5.596-0.567 9.004-0.917 17.779-0.917 26.675 0 6.271-0.229 15.621 0.805 21.546 1.016 5.579 1.929 9.116 6.037 13.112 3.654 3.421 7.975 4.909 13.004 4.909 10.588-0 16.296-3.88 20.283-13.8 2.067-5.025 2.067-18.013 2.067-23.609 0-11.395-0.117-22.908-0.921-34.316 1.93 0.341 3.884 0.575 5.813 0.575 1.933-0 3.879-0.234 5.704-0.575-0.563 5.483-0.692 11.066-0.921 16.65z" fill-rule="nonzero"/><path d="m1142.3 210.12 0.783 56.558 1.046 28.146 0.529 5.725c-3.92-0.25-8.087-1.283-11.996-1.283-4.683-0-9.12 1.033-13.816 1.283 0.275-1.812 0.275-3.904 0.529-5.725l1.05-20.583 1.042-61v-63.579l-1.313-27.629c4.438 0.27 8.859 1.045 13.3 1.045 3.904 0 8.071-0.516 11.979-0.775-0.258 2.334-0.258 4.684-0.512 7.03l-1.05 23.708-1.304 45.358-0.267 11.721z" fill-rule="nonzero"/><path d="m1069.2 287.96c3.133 10.58-53.717 14.429-74.646 14.429-68.129 0-121.97-34.916-121.97-93.82 0-55.246 53.842-93.813 121.97-93.813 24.267 0 49.521 4.433 71.125 12.767l-10.971 17.721c-14.954-6.771-36.892-11.717-60.154-11.717-53.513 0-91.409 33.35-91.409 75.042 0 41.712 37.896 75.066 91.409 75.066 15.946 0 33.571-3.133 46.2-7.558l3.562-3.05v-53.692l-1.316-27.633c4.437 0.271 13.062 1.046 17.496 1.046 3.908-0 8.075-0.517 11.983-0.775-0.254 2.333-0.254 4.683-0.517 7.029l-1.046 23.729-1.716 65.229z" fill-rule="nonzero"/><path d="m1375.6 287.96c3.142 10.58-53.721 14.429-74.642 14.429-68.137 0-121.98-34.916-121.98-93.82 0-55.246 53.842-93.813 121.98-93.813 24.242 0 49.504 4.433 71.117 12.767l-10.975 17.721c-14.95-6.771-36.883-11.717-60.142-11.717-53.52 0-91.416 33.35-91.416 75.042-0 41.712 37.896 75.066 91.416 75.066 15.942 0 33.554-3.133 46.2-7.558l3.546-3.05v-53.692l-1.3-27.633c4.433 0.271 13.054 1.046 17.496 1.046 3.908-0 8.075-0.517 11.979-0.775-0.258 2.333-0.258 4.683-0.529 7.029l-1.042 23.729-1.708 65.229z" fill-rule="nonzero"/></g></svg>
